<mxfile host="65bd71144e">
    <diagram id="KpJnQdfeN1yX3YBxylaA" name="Page-1">
        <mxGraphModel dx="560" dy="448" grid="1" gridSize="10" guides="1" tooltips="1" connect="1" arrows="1" fold="1" page="1" pageScale="1" pageWidth="827" pageHeight="1169" math="0" shadow="0">
            <root>
                <mxCell id="0"/>
                <mxCell id="1" parent="0"/>
                <mxCell id="2" value="c" style="rounded=0;whiteSpace=wrap;html=1;fillColor=#FFFFFF;strokeColor=none;container=1;collapsible=0;movable=0;connectable=0;dropTarget=0;deletable=0;recursiveResize=0;expand=0;" parent="1" vertex="1">
                    <mxGeometry x="136" y="60" width="1294" height="980" as="geometry">
                        <mxRectangle x="110" y="60" width="50" height="40" as="alternateBounds"/>
                    </mxGeometry>
                </mxCell>
                <mxCell id="29" value="&lt;div style=&quot;font-size: 16px;&quot;&gt;&lt;div style=&quot;font-size: 16px;&quot;&gt;&lt;div style=&quot;font-size: 16px;&quot;&gt;&lt;div style=&quot;font-size: 16px;&quot;&gt;&lt;div style=&quot;font-size: 16px;&quot;&gt;&lt;span style=&quot;font-size: 16px;&quot;&gt;挚&lt;/span&gt;&lt;/div&gt;&lt;/div&gt;&lt;/div&gt;&lt;/div&gt;&lt;div style=&quot;font-size: 16px;&quot;&gt;&lt;/div&gt;&lt;/div&gt;" style="rounded=1;whiteSpace=wrap;html=1;fillColor=#1ba1e2;fontColor=#ffffff;fontSize=16;strokeColor=none;strokeWidth=2;" parent="2" vertex="1">
                    <mxGeometry x="278" y="410" width="50" height="30" as="geometry"/>
                </mxCell>
                <mxCell id="40" style="edgeStyle=orthogonalEdgeStyle;html=1;exitX=0.5;exitY=1;exitDx=0;exitDy=0;entryX=0.5;entryY=0;entryDx=0;entryDy=0;fontSize=16;fontColor=#000000;endArrow=blockThin;endFill=1;strokeColor=#000000;strokeWidth=1;" parent="2" source="30" target="35" edge="1">
                    <mxGeometry relative="1" as="geometry">
                        <Array as="points">
                            <mxPoint x="381" y="450"/>
                            <mxPoint x="318" y="450"/>
                        </Array>
                    </mxGeometry>
                </mxCell>
                <mxCell id="42" style="edgeStyle=orthogonalEdgeStyle;html=1;entryX=0.5;entryY=0;entryDx=0;entryDy=0;fontSize=16;fontColor=#000000;endArrow=blockThin;endFill=1;strokeColor=#000000;strokeWidth=1;" parent="2" source="30" target="39" edge="1">
                    <mxGeometry relative="1" as="geometry">
                        <Array as="points">
                            <mxPoint x="381" y="450"/>
                            <mxPoint x="461" y="450"/>
                        </Array>
                    </mxGeometry>
                </mxCell>
                <mxCell id="43" style="edgeStyle=orthogonalEdgeStyle;html=1;entryX=0.5;entryY=0;entryDx=0;entryDy=0;fontSize=16;fontColor=#000000;endArrow=blockThin;endFill=1;strokeColor=#000000;strokeWidth=1;" parent="2" source="30" target="38" edge="1">
                    <mxGeometry relative="1" as="geometry"/>
                </mxCell>
                <mxCell id="30" value="&lt;div style=&quot;font-size: 16px;&quot;&gt;&lt;div style=&quot;font-size: 16px;&quot;&gt;&lt;div style=&quot;font-size: 16px;&quot;&gt;&lt;div style=&quot;font-size: 16px;&quot;&gt;&lt;div style=&quot;font-size: 16px;&quot;&gt;&lt;span style=&quot;font-size: 16px;&quot;&gt;伊祁放勋&lt;/span&gt;&lt;/div&gt;&lt;/div&gt;&lt;/div&gt;&lt;/div&gt;&lt;div style=&quot;font-size: 16px;&quot;&gt;&lt;/div&gt;&lt;/div&gt;" style="rounded=1;whiteSpace=wrap;html=1;fillColor=#1ba1e2;fontColor=#ffffff;fontSize=16;strokeColor=none;strokeWidth=2;" parent="2" vertex="1">
                    <mxGeometry x="343" y="410" width="75" height="30" as="geometry"/>
                </mxCell>
                <mxCell id="33" value="&lt;div style=&quot;font-size: 14px&quot;&gt;&lt;div style=&quot;font-size: 14px&quot;&gt;&lt;div style=&quot;font-size: 14px&quot;&gt;&lt;div style=&quot;font-size: 14px&quot;&gt;&lt;span style=&quot;font-size: 14px&quot;&gt;陶唐&lt;/span&gt;&lt;/div&gt;&lt;/div&gt;&lt;/div&gt;&lt;/div&gt;" style="text;html=1;align=center;verticalAlign=middle;resizable=0;points=[];autosize=1;strokeColor=none;fillColor=#9999FF;fontSize=14;fontColor=#000000;rounded=1;" parent="2" vertex="1">
                    <mxGeometry x="418" y="425" width="40" height="20" as="geometry"/>
                </mxCell>
                <mxCell id="34" value="&lt;div style=&quot;font-size: 14px&quot;&gt;&lt;div style=&quot;font-size: 14px&quot;&gt;&lt;div style=&quot;font-size: 14px&quot;&gt;&lt;div style=&quot;font-size: 14px&quot;&gt;&lt;span style=&quot;font-size: 14px&quot;&gt;尧&lt;/span&gt;&lt;/div&gt;&lt;/div&gt;&lt;/div&gt;&lt;/div&gt;" style="text;html=1;align=center;verticalAlign=middle;resizable=0;points=[];autosize=1;strokeColor=none;fillColor=none;fontSize=14;fontColor=#000000;" parent="2" vertex="1">
                    <mxGeometry x="422" y="405" width="30" height="20" as="geometry"/>
                </mxCell>
                <mxCell id="35" value="&lt;div style=&quot;font-size: 16px;&quot;&gt;&lt;div style=&quot;font-size: 16px;&quot;&gt;&lt;div style=&quot;font-size: 16px;&quot;&gt;&lt;div style=&quot;font-size: 16px;&quot;&gt;&lt;span style=&quot;font-size: 16px;&quot;&gt;丹朱&lt;/span&gt;&lt;/div&gt;&lt;/div&gt;&lt;/div&gt;&lt;div style=&quot;font-size: 16px;&quot;&gt;&lt;/div&gt;&lt;/div&gt;" style="rounded=1;whiteSpace=wrap;html=1;fillColor=#E6E6E6;fontColor=#000000;fontSize=16;strokeColor=none;strokeWidth=2;" parent="2" vertex="1">
                    <mxGeometry x="293" y="483" width="50" height="30" as="geometry"/>
                </mxCell>
                <mxCell id="36" value="&lt;div style=&quot;font-size: 14px;&quot;&gt;&lt;div style=&quot;font-size: 14px;&quot;&gt;&lt;div style=&quot;font-size: 14px;&quot;&gt;&lt;div style=&quot;font-size: 14px;&quot;&gt;&lt;div style=&quot;font-size: 14px;&quot;&gt;常仪&lt;/div&gt;&lt;/div&gt;&lt;/div&gt;&lt;/div&gt;&lt;/div&gt;" style="text;html=1;align=center;verticalAlign=middle;resizable=0;points=[];autosize=1;strokeColor=none;fillColor=none;fontSize=14;fontColor=#000000;" parent="2" vertex="1">
                    <mxGeometry x="301" y="386" width="40" height="20" as="geometry"/>
                </mxCell>
                <mxCell id="37" value="&lt;div style=&quot;font-size: 14px;&quot;&gt;&lt;div style=&quot;font-size: 14px;&quot;&gt;&lt;div style=&quot;font-size: 14px;&quot;&gt;&lt;div style=&quot;font-size: 14px;&quot;&gt;&lt;div style=&quot;font-size: 14px;&quot;&gt;&lt;div style=&quot;font-size: 14px;&quot;&gt;庆都&lt;/div&gt;&lt;/div&gt;&lt;/div&gt;&lt;/div&gt;&lt;/div&gt;&lt;/div&gt;" style="text;html=1;align=center;verticalAlign=middle;resizable=0;points=[];autosize=1;strokeColor=none;fillColor=none;fontSize=14;fontColor=#000000;" parent="2" vertex="1">
                    <mxGeometry x="379" y="386" width="40" height="20" as="geometry"/>
                </mxCell>
                <mxCell id="121" style="edgeStyle=orthogonalEdgeStyle;shape=link;rounded=1;html=1;exitX=1;exitY=0.5;exitDx=0;exitDy=0;entryX=0;entryY=0.75;entryDx=0;entryDy=0;labelBackgroundColor=default;fontFamily=Helvetica;fontSize=16;fontColor=#000000;endArrow=blockThin;endFill=1;strokeColor=#000000;strokeWidth=1;" parent="2" source="38" target="53" edge="1">
                    <mxGeometry relative="1" as="geometry">
                        <Array as="points">
                            <mxPoint x="426" y="498"/>
                            <mxPoint x="426" y="713"/>
                        </Array>
                    </mxGeometry>
                </mxCell>
                <mxCell id="38" value="&lt;div style=&quot;font-size: 16px&quot;&gt;&lt;div style=&quot;font-size: 16px&quot;&gt;&lt;div style=&quot;font-size: 16px&quot;&gt;&lt;div style=&quot;font-size: 16px&quot;&gt;&lt;div style=&quot;font-size: 16px&quot;&gt;&lt;span style=&quot;font-size: 16px&quot;&gt;娥皇&lt;/span&gt;&lt;/div&gt;&lt;/div&gt;&lt;/div&gt;&lt;/div&gt;&lt;div style=&quot;font-size: 16px&quot;&gt;&lt;/div&gt;&lt;/div&gt;" style="rounded=1;whiteSpace=wrap;html=1;fillColor=#d80073;fontColor=#ffffff;fontSize=16;strokeColor=none;strokeWidth=2;" parent="2" vertex="1">
                    <mxGeometry x="350.5" y="483" width="60" height="30" as="geometry"/>
                </mxCell>
                <mxCell id="120" style="edgeStyle=orthogonalEdgeStyle;shape=link;rounded=1;html=1;exitX=1;exitY=0.5;exitDx=0;exitDy=0;entryX=0;entryY=0.25;entryDx=0;entryDy=0;labelBackgroundColor=default;fontFamily=Helvetica;fontSize=16;fontColor=#000000;endArrow=blockThin;endFill=1;strokeColor=#000000;strokeWidth=1;" parent="2" source="39" target="53" edge="1">
                    <mxGeometry relative="1" as="geometry">
                        <Array as="points">
                            <mxPoint x="506" y="498"/>
                            <mxPoint x="506" y="698"/>
                        </Array>
                    </mxGeometry>
                </mxCell>
                <mxCell id="39" value="&lt;div style=&quot;font-size: 16px&quot;&gt;&lt;div style=&quot;font-size: 16px&quot;&gt;&lt;div style=&quot;font-size: 16px&quot;&gt;&lt;div style=&quot;font-size: 16px&quot;&gt;&lt;div style=&quot;font-size: 16px&quot;&gt;&lt;span style=&quot;font-size: 16px&quot;&gt;女英&lt;/span&gt;&lt;/div&gt;&lt;/div&gt;&lt;/div&gt;&lt;/div&gt;&lt;div style=&quot;font-size: 16px&quot;&gt;&lt;/div&gt;&lt;/div&gt;" style="rounded=1;whiteSpace=wrap;html=1;fillColor=#d80073;fontColor=#ffffff;fontSize=16;strokeColor=none;strokeWidth=2;" parent="2" vertex="1">
                    <mxGeometry x="431" y="483" width="60" height="30" as="geometry"/>
                </mxCell>
                <mxCell id="44" value="&lt;div style=&quot;font-size: 14px&quot;&gt;&lt;div style=&quot;font-size: 14px&quot;&gt;&lt;div style=&quot;font-size: 14px&quot;&gt;&lt;div style=&quot;font-size: 14px&quot;&gt;&lt;div style=&quot;font-size: 14px&quot;&gt;&lt;div style=&quot;font-size: 14px&quot;&gt;&lt;div&gt;女皇&lt;/div&gt;&lt;/div&gt;&lt;/div&gt;&lt;/div&gt;&lt;/div&gt;&lt;/div&gt;&lt;/div&gt;" style="text;html=1;align=center;verticalAlign=middle;resizable=0;points=[];autosize=1;strokeColor=none;fillColor=none;fontSize=14;fontColor=#000000;" parent="2" vertex="1">
                    <mxGeometry x="315.5" y="457" width="40" height="20" as="geometry"/>
                </mxCell>
                <mxCell id="57" style="edgeStyle=orthogonalEdgeStyle;html=1;entryX=0.5;entryY=0;entryDx=0;entryDy=0;fontSize=16;fontColor=#000000;endArrow=blockThin;endFill=1;strokeColor=#000000;strokeWidth=1;" parent="2" source="46" target="48" edge="1">
                    <mxGeometry relative="1" as="geometry"/>
                </mxCell>
                <mxCell id="46" value="&lt;div style=&quot;font-size: 16px;&quot;&gt;&lt;div style=&quot;font-size: 16px;&quot;&gt;&lt;div style=&quot;font-size: 16px;&quot;&gt;&lt;div style=&quot;font-size: 16px;&quot;&gt;&lt;div style=&quot;font-size: 16px;&quot;&gt;&lt;span style=&quot;font-size: 16px;&quot;&gt;穷蝉&lt;/span&gt;&lt;/div&gt;&lt;/div&gt;&lt;/div&gt;&lt;/div&gt;&lt;div style=&quot;font-size: 16px;&quot;&gt;&lt;/div&gt;&lt;/div&gt;" style="rounded=1;whiteSpace=wrap;html=1;fillColor=#E6E6E6;fontColor=#000000;fontSize=16;strokeColor=none;strokeWidth=2;" parent="2" vertex="1">
                    <mxGeometry x="545" y="340" width="50" height="30" as="geometry"/>
                </mxCell>
                <mxCell id="58" style="edgeStyle=orthogonalEdgeStyle;html=1;entryX=0.5;entryY=0;entryDx=0;entryDy=0;fontSize=16;fontColor=#000000;endArrow=blockThin;endFill=1;strokeColor=#000000;strokeWidth=1;" parent="2" source="48" target="49" edge="1">
                    <mxGeometry relative="1" as="geometry"/>
                </mxCell>
                <mxCell id="48" value="&lt;div style=&quot;font-size: 16px;&quot;&gt;&lt;div style=&quot;font-size: 16px;&quot;&gt;&lt;div style=&quot;font-size: 16px;&quot;&gt;&lt;div style=&quot;font-size: 16px;&quot;&gt;&lt;div style=&quot;font-size: 16px;&quot;&gt;&lt;div style=&quot;font-size: 16px;&quot;&gt;&lt;span style=&quot;font-size: 16px;&quot;&gt;敬康&lt;/span&gt;&lt;/div&gt;&lt;/div&gt;&lt;/div&gt;&lt;/div&gt;&lt;/div&gt;&lt;div style=&quot;font-size: 16px;&quot;&gt;&lt;/div&gt;&lt;/div&gt;" style="rounded=1;whiteSpace=wrap;html=1;fillColor=#E6E6E6;fontColor=#000000;fontSize=16;strokeColor=none;strokeWidth=2;" parent="2" vertex="1">
                    <mxGeometry x="545" y="410" width="50" height="30" as="geometry"/>
                </mxCell>
                <mxCell id="59" style="edgeStyle=orthogonalEdgeStyle;html=1;fontSize=16;fontColor=#000000;endArrow=blockThin;endFill=1;strokeColor=#000000;strokeWidth=1;" parent="2" source="49" target="50" edge="1">
                    <mxGeometry relative="1" as="geometry"/>
                </mxCell>
                <mxCell id="49" value="&lt;div style=&quot;font-size: 16px;&quot;&gt;&lt;div style=&quot;font-size: 16px;&quot;&gt;&lt;div style=&quot;font-size: 16px;&quot;&gt;&lt;div style=&quot;font-size: 16px;&quot;&gt;&lt;div style=&quot;font-size: 16px;&quot;&gt;&lt;div style=&quot;font-size: 16px;&quot;&gt;&lt;span style=&quot;font-size: 16px;&quot;&gt;句望&lt;/span&gt;&lt;/div&gt;&lt;/div&gt;&lt;/div&gt;&lt;/div&gt;&lt;/div&gt;&lt;div style=&quot;font-size: 16px;&quot;&gt;&lt;/div&gt;&lt;/div&gt;" style="rounded=1;whiteSpace=wrap;html=1;fillColor=#E6E6E6;fontColor=#000000;fontSize=16;strokeColor=none;strokeWidth=2;" parent="2" vertex="1">
                    <mxGeometry x="545" y="483" width="50" height="30" as="geometry"/>
                </mxCell>
                <mxCell id="60" style="edgeStyle=orthogonalEdgeStyle;html=1;exitX=0.5;exitY=1;exitDx=0;exitDy=0;entryX=0.5;entryY=0;entryDx=0;entryDy=0;fontSize=16;fontColor=#000000;endArrow=blockThin;endFill=1;strokeColor=#000000;strokeWidth=1;" parent="2" source="50" target="52" edge="1">
                    <mxGeometry relative="1" as="geometry"/>
                </mxCell>
                <mxCell id="50" value="&lt;div style=&quot;font-size: 16px;&quot;&gt;&lt;div style=&quot;font-size: 16px;&quot;&gt;&lt;div style=&quot;font-size: 16px;&quot;&gt;&lt;div style=&quot;font-size: 16px;&quot;&gt;&lt;div style=&quot;font-size: 16px;&quot;&gt;&lt;div style=&quot;font-size: 16px;&quot;&gt;&lt;span style=&quot;font-size: 16px;&quot;&gt;桥牛&lt;/span&gt;&lt;/div&gt;&lt;/div&gt;&lt;/div&gt;&lt;/div&gt;&lt;/div&gt;&lt;div style=&quot;font-size: 16px;&quot;&gt;&lt;/div&gt;&lt;/div&gt;" style="rounded=1;whiteSpace=wrap;html=1;fillColor=#E6E6E6;fontColor=#000000;fontSize=16;strokeColor=none;strokeWidth=2;" parent="2" vertex="1">
                    <mxGeometry x="545" y="550" width="50" height="30" as="geometry"/>
                </mxCell>
                <mxCell id="61" style="edgeStyle=orthogonalEdgeStyle;html=1;exitX=0.5;exitY=1;exitDx=0;exitDy=0;entryX=0.5;entryY=0;entryDx=0;entryDy=0;fontSize=16;fontColor=#000000;endArrow=blockThin;endFill=1;strokeColor=#000000;strokeWidth=1;" parent="2" source="52" target="53" edge="1">
                    <mxGeometry relative="1" as="geometry"/>
                </mxCell>
                <mxCell id="63" style="edgeStyle=orthogonalEdgeStyle;html=1;exitX=0.5;exitY=1;exitDx=0;exitDy=0;entryX=0.5;entryY=0;entryDx=0;entryDy=0;fontSize=16;fontColor=#000000;endArrow=blockThin;endFill=1;strokeColor=#000000;strokeWidth=1;" parent="2" source="52" target="55" edge="1">
                    <mxGeometry relative="1" as="geometry">
                        <Array as="points">
                            <mxPoint x="570" y="660"/>
                            <mxPoint x="674" y="660"/>
                        </Array>
                    </mxGeometry>
                </mxCell>
                <mxCell id="52" value="&lt;div style=&quot;font-size: 16px&quot;&gt;&lt;div style=&quot;font-size: 16px&quot;&gt;&lt;span style=&quot;font-size: 16px&quot;&gt;瞽叟&lt;/span&gt;&lt;/div&gt;&lt;/div&gt;" style="rounded=1;whiteSpace=wrap;html=1;fillColor=#E6E6E6;fontColor=#000000;fontSize=16;strokeColor=none;strokeWidth=2;" parent="2" vertex="1">
                    <mxGeometry x="545" y="620" width="50" height="30" as="geometry"/>
                </mxCell>
                <mxCell id="62" style="edgeStyle=orthogonalEdgeStyle;html=1;exitX=0.5;exitY=1;exitDx=0;exitDy=0;entryX=0.5;entryY=0;entryDx=0;entryDy=0;fontSize=16;fontColor=#000000;endArrow=blockThin;endFill=1;strokeColor=#000000;strokeWidth=1;" parent="2" source="53" target="54" edge="1">
                    <mxGeometry relative="1" as="geometry"/>
                </mxCell>
                <mxCell id="53" value="&lt;div style=&quot;font-size: 16px;&quot;&gt;&lt;div style=&quot;font-size: 16px;&quot;&gt;&lt;div style=&quot;font-size: 16px;&quot;&gt;&lt;div style=&quot;font-size: 16px;&quot;&gt;&lt;span style=&quot;font-size: 16px;&quot;&gt;姚重华&lt;/span&gt;&lt;/div&gt;&lt;div style=&quot;font-size: 16px;&quot;&gt;&lt;/div&gt;&lt;/div&gt;&lt;/div&gt;&lt;/div&gt;" style="rounded=1;whiteSpace=wrap;html=1;fillColor=#1ba1e2;fontColor=#ffffff;fontSize=16;strokeColor=none;strokeWidth=2;" parent="2" vertex="1">
                    <mxGeometry x="540" y="690" width="60" height="30" as="geometry"/>
                </mxCell>
                <mxCell id="54" value="&lt;div style=&quot;font-size: 16px;&quot;&gt;&lt;div style=&quot;font-size: 16px;&quot;&gt;&lt;div style=&quot;font-size: 16px;&quot;&gt;&lt;div style=&quot;font-size: 16px;&quot;&gt;&lt;div style=&quot;font-size: 16px;&quot;&gt;&lt;div style=&quot;font-size: 16px;&quot;&gt;&lt;div style=&quot;font-size: 16px;&quot;&gt;&lt;span style=&quot;font-size: 16px;&quot;&gt;商均&lt;/span&gt;&lt;/div&gt;&lt;/div&gt;&lt;/div&gt;&lt;/div&gt;&lt;/div&gt;&lt;/div&gt;&lt;div style=&quot;font-size: 16px;&quot;&gt;&lt;/div&gt;&lt;/div&gt;" style="rounded=1;whiteSpace=wrap;html=1;fillColor=#E6E6E6;fontColor=#000000;fontSize=16;strokeColor=none;strokeWidth=2;" parent="2" vertex="1">
                    <mxGeometry x="545" y="800" width="50" height="30" as="geometry"/>
                </mxCell>
                <mxCell id="55" value="&lt;div style=&quot;font-size: 16px;&quot;&gt;&lt;div style=&quot;font-size: 16px;&quot;&gt;&lt;div style=&quot;font-size: 16px;&quot;&gt;&lt;div style=&quot;font-size: 16px;&quot;&gt;&lt;div style=&quot;font-size: 16px;&quot;&gt;&lt;div style=&quot;font-size: 16px;&quot;&gt;&lt;div style=&quot;font-size: 16px;&quot;&gt;&lt;div style=&quot;font-size: 16px;&quot;&gt;&lt;span style=&quot;font-size: 16px;&quot;&gt;象&lt;/span&gt;&lt;/div&gt;&lt;/div&gt;&lt;/div&gt;&lt;/div&gt;&lt;/div&gt;&lt;/div&gt;&lt;/div&gt;&lt;div style=&quot;font-size: 16px;&quot;&gt;&lt;/div&gt;&lt;/div&gt;" style="rounded=1;whiteSpace=wrap;html=1;fillColor=#E6E6E6;fontColor=#000000;fontSize=16;strokeColor=none;strokeWidth=2;" parent="2" vertex="1">
                    <mxGeometry x="649" y="690" width="50" height="30" as="geometry"/>
                </mxCell>
                <mxCell id="64" value="&lt;div style=&quot;font-size: 14px&quot;&gt;&lt;div style=&quot;font-size: 14px&quot;&gt;&lt;div style=&quot;font-size: 14px&quot;&gt;&lt;div style=&quot;font-size: 14px&quot;&gt;&lt;div style=&quot;font-size: 14px&quot;&gt;&lt;div style=&quot;font-size: 14px&quot;&gt;&lt;div&gt;握登&lt;/div&gt;&lt;/div&gt;&lt;/div&gt;&lt;/div&gt;&lt;/div&gt;&lt;/div&gt;&lt;/div&gt;" style="text;html=1;align=center;verticalAlign=middle;resizable=0;points=[];autosize=1;strokeColor=none;fillColor=none;fontSize=14;fontColor=#000000;" parent="2" vertex="1">
                    <mxGeometry x="569" y="667" width="40" height="20" as="geometry"/>
                </mxCell>
                <mxCell id="65" value="&lt;div style=&quot;font-size: 14px&quot;&gt;&lt;div style=&quot;font-size: 14px&quot;&gt;&lt;div style=&quot;font-size: 14px&quot;&gt;&lt;div style=&quot;font-size: 14px&quot;&gt;&lt;div style=&quot;font-size: 14px&quot;&gt;&lt;div style=&quot;font-size: 14px&quot;&gt;&lt;div&gt;女英&lt;/div&gt;&lt;/div&gt;&lt;/div&gt;&lt;/div&gt;&lt;/div&gt;&lt;/div&gt;&lt;/div&gt;" style="text;html=1;align=center;verticalAlign=middle;resizable=0;points=[];autosize=1;strokeColor=none;fillColor=none;fontSize=14;fontColor=#000000;" parent="2" vertex="1">
                    <mxGeometry x="569" y="770" width="40" height="20" as="geometry"/>
                </mxCell>
                <mxCell id="69" style="edgeStyle=orthogonalEdgeStyle;html=1;exitX=0.5;exitY=1;exitDx=0;exitDy=0;fontSize=16;fontColor=#000000;endArrow=blockThin;endFill=1;strokeColor=#000000;strokeWidth=1;entryX=0.5;entryY=0;entryDx=0;entryDy=0;" parent="2" source="66" target="67" edge="1">
                    <mxGeometry relative="1" as="geometry"/>
                </mxCell>
                <mxCell id="66" value="&lt;div style=&quot;font-size: 16px;&quot;&gt;&lt;div style=&quot;font-size: 16px;&quot;&gt;&lt;div style=&quot;font-size: 16px;&quot;&gt;&lt;div style=&quot;font-size: 16px;&quot;&gt;&lt;div style=&quot;font-size: 16px;&quot;&gt;&lt;div style=&quot;font-size: 16px;&quot;&gt;&lt;span style=&quot;font-size: 16px;&quot;&gt;鲧&lt;/span&gt;&lt;/div&gt;&lt;/div&gt;&lt;/div&gt;&lt;/div&gt;&lt;/div&gt;&lt;div style=&quot;font-size: 16px;&quot;&gt;&lt;/div&gt;&lt;/div&gt;" style="rounded=1;whiteSpace=wrap;html=1;fillColor=#E6E6E6;fontColor=#000000;fontSize=16;strokeColor=none;strokeWidth=2;" parent="2" vertex="1">
                    <mxGeometry x="633" y="340" width="50" height="30" as="geometry"/>
                </mxCell>
                <mxCell id="74" style="edgeStyle=orthogonalEdgeStyle;html=1;exitX=0.5;exitY=1;exitDx=0;exitDy=0;entryX=0.5;entryY=0;entryDx=0;entryDy=0;fontSize=16;fontColor=#000000;endArrow=blockThin;endFill=1;strokeColor=#000000;strokeWidth=1;" parent="2" source="67" target="73" edge="1">
                    <mxGeometry relative="1" as="geometry"/>
                </mxCell>
                <mxCell id="67" value="&lt;div style=&quot;font-size: 16px;&quot;&gt;&lt;div style=&quot;font-size: 16px;&quot;&gt;&lt;div style=&quot;font-size: 16px;&quot;&gt;&lt;span style=&quot;font-size: 16px;&quot;&gt;姒文命&lt;/span&gt;&lt;/div&gt;&lt;/div&gt;&lt;/div&gt;" style="rounded=1;whiteSpace=wrap;html=1;fillColor=#1ba1e2;fontColor=#ffffff;fontSize=16;strokeColor=none;strokeWidth=2;" parent="2" vertex="1">
                    <mxGeometry x="628" y="410" width="60" height="30" as="geometry"/>
                </mxCell>
                <mxCell id="70" value="&lt;div style=&quot;font-size: 14px&quot;&gt;&lt;div style=&quot;font-size: 14px&quot;&gt;&lt;div style=&quot;font-size: 14px&quot;&gt;&lt;div style=&quot;font-size: 14px&quot;&gt;&lt;div style=&quot;font-size: 14px&quot;&gt;&lt;div style=&quot;font-size: 14px&quot;&gt;&lt;div&gt;脩己&lt;/div&gt;&lt;/div&gt;&lt;/div&gt;&lt;/div&gt;&lt;/div&gt;&lt;/div&gt;&lt;/div&gt;" style="text;html=1;align=center;verticalAlign=middle;resizable=0;points=[];autosize=1;strokeColor=none;fillColor=none;fontSize=14;fontColor=#000000;" parent="2" vertex="1">
                    <mxGeometry x="656" y="386" width="40" height="20" as="geometry"/>
                </mxCell>
                <mxCell id="71" value="&lt;div style=&quot;font-size: 14px&quot;&gt;&lt;div style=&quot;font-size: 14px&quot;&gt;&lt;div style=&quot;font-size: 14px&quot;&gt;&lt;div style=&quot;font-size: 14px&quot;&gt;&lt;div&gt;禹&lt;/div&gt;&lt;/div&gt;&lt;/div&gt;&lt;/div&gt;&lt;/div&gt;" style="text;html=1;align=center;verticalAlign=middle;resizable=0;points=[];autosize=1;strokeColor=none;fillColor=none;fontSize=14;fontColor=#000000;" parent="2" vertex="1">
                    <mxGeometry x="689" y="405" width="30" height="20" as="geometry"/>
                </mxCell>
                <mxCell id="72" value="&lt;div style=&quot;font-size: 14px&quot;&gt;&lt;div style=&quot;font-size: 14px&quot;&gt;&lt;div style=&quot;font-size: 14px&quot;&gt;&lt;div style=&quot;font-size: 14px&quot;&gt;&lt;span style=&quot;font-size: 14px&quot;&gt;夏后&lt;/span&gt;&lt;/div&gt;&lt;/div&gt;&lt;/div&gt;&lt;/div&gt;" style="text;html=1;align=center;verticalAlign=middle;resizable=0;points=[];autosize=1;strokeColor=none;fillColor=#9999FF;fontSize=14;fontColor=#000000;rounded=1;" parent="2" vertex="1">
                    <mxGeometry x="688" y="425" width="40" height="20" as="geometry"/>
                </mxCell>
                <mxCell id="73" value="&lt;div style=&quot;font-size: 16px&quot;&gt;&lt;div style=&quot;font-size: 16px&quot;&gt;&lt;div style=&quot;font-size: 16px&quot;&gt;&lt;div style=&quot;font-size: 16px&quot;&gt;【夏世系】&lt;/div&gt;&lt;/div&gt;&lt;/div&gt;&lt;/div&gt;" style="rounded=1;whiteSpace=wrap;html=1;fillColor=#FFFF00;fontColor=#000000;fontSize=16;strokeColor=none;strokeWidth=2;" parent="2" vertex="1">
                    <mxGeometry x="615.5" y="483" width="85" height="30" as="geometry"/>
                </mxCell>
                <mxCell id="76" value="&lt;div style=&quot;font-size: 14px&quot;&gt;&lt;div style=&quot;font-size: 14px&quot;&gt;&lt;div style=&quot;font-size: 14px&quot;&gt;&lt;div style=&quot;font-size: 14px&quot;&gt;&lt;div&gt;舜&lt;/div&gt;&lt;/div&gt;&lt;/div&gt;&lt;/div&gt;&lt;/div&gt;" style="text;html=1;align=center;verticalAlign=middle;resizable=0;points=[];autosize=1;strokeColor=none;fillColor=none;fontSize=14;fontColor=#000000;" parent="2" vertex="1">
                    <mxGeometry x="601" y="683" width="30" height="20" as="geometry"/>
                </mxCell>
                <mxCell id="77" value="&lt;div style=&quot;font-size: 14px&quot;&gt;&lt;div style=&quot;font-size: 14px&quot;&gt;&lt;div style=&quot;font-size: 14px&quot;&gt;&lt;div style=&quot;font-size: 14px&quot;&gt;&lt;span style=&quot;font-size: 14px&quot;&gt;有虞&lt;/span&gt;&lt;/div&gt;&lt;/div&gt;&lt;/div&gt;&lt;/div&gt;" style="text;html=1;align=center;verticalAlign=middle;resizable=0;points=[];autosize=1;strokeColor=none;fillColor=#9999FF;fontSize=14;fontColor=#000000;rounded=1;" parent="2" vertex="1">
                    <mxGeometry x="600" y="704" width="40" height="20" as="geometry"/>
                </mxCell>
                <mxCell id="78" value="&lt;div style=&quot;font-size: 14px&quot;&gt;&lt;div style=&quot;font-size: 14px&quot;&gt;&lt;div style=&quot;font-size: 14px&quot;&gt;&lt;div style=&quot;font-size: 14px&quot;&gt;&lt;div style=&quot;font-size: 14px&quot;&gt;&lt;div style=&quot;font-size: 14px&quot;&gt;&lt;div&gt;昌仆&lt;/div&gt;&lt;/div&gt;&lt;/div&gt;&lt;/div&gt;&lt;/div&gt;&lt;/div&gt;&lt;/div&gt;" style="text;html=1;align=center;verticalAlign=middle;resizable=0;points=[];autosize=1;strokeColor=none;fillColor=none;fontSize=14;fontColor=#000000;" parent="2" vertex="1">
                    <mxGeometry x="568" y="250" width="40" height="20" as="geometry"/>
                </mxCell>
                <mxCell id="19" value="&lt;div style=&quot;font-size: 14px;&quot;&gt;&lt;div style=&quot;font-size: 14px;&quot;&gt;&lt;span style=&quot;font-size: 14px;&quot;&gt;黄帝&lt;/span&gt;&lt;/div&gt;&lt;/div&gt;" style="text;html=1;align=center;verticalAlign=middle;resizable=0;points=[];autosize=1;strokeColor=none;fillColor=none;fontSize=14;fontColor=#000000;" parent="2" vertex="1">
                    <mxGeometry x="486" y="127" width="40" height="20" as="geometry"/>
                </mxCell>
                <mxCell id="79" value="&lt;div style=&quot;font-size: 14px&quot;&gt;&lt;div style=&quot;font-size: 14px&quot;&gt;&lt;span style=&quot;font-size: 14px&quot;&gt;有熊&lt;/span&gt;&lt;/div&gt;&lt;/div&gt;" style="text;html=1;align=center;verticalAlign=middle;resizable=0;points=[];autosize=1;strokeColor=none;fillColor=#9999FF;fontSize=14;fontColor=#000000;rounded=1;" parent="2" vertex="1">
                    <mxGeometry x="485" y="145" width="40" height="20" as="geometry"/>
                </mxCell>
                <mxCell id="85" value="" style="rounded=1;whiteSpace=wrap;html=1;fontSize=16;fontColor=#000000;strokeColor=none;strokeWidth=2;fillColor=#9999FF;" parent="2" vertex="1">
                    <mxGeometry x="1075" y="50" width="40" height="16" as="geometry"/>
                </mxCell>
                <mxCell id="86" value="&lt;div style=&quot;font-size: 14px&quot;&gt;国号&lt;/div&gt;" style="text;html=1;align=center;verticalAlign=middle;resizable=0;points=[];autosize=1;strokeColor=none;fillColor=none;fontSize=14;fontColor=#000000;" parent="2" vertex="1">
                    <mxGeometry x="1115" y="48" width="40" height="20" as="geometry"/>
                </mxCell>
                <mxCell id="87" value="" style="rounded=1;whiteSpace=wrap;html=1;fontSize=16;fontColor=#ffffff;strokeColor=none;strokeWidth=2;fillColor=#1ba1e2;" parent="2" vertex="1">
                    <mxGeometry x="1075" y="26" width="40" height="16" as="geometry"/>
                </mxCell>
                <mxCell id="88" value="&lt;div style=&quot;font-size: 14px&quot;&gt;帝&lt;/div&gt;" style="text;html=1;align=center;verticalAlign=middle;resizable=0;points=[];autosize=1;strokeColor=none;fillColor=none;fontSize=14;fontColor=#000000;" parent="2" vertex="1">
                    <mxGeometry x="1120" y="24" width="30" height="20" as="geometry"/>
                </mxCell>
                <mxCell id="6" value="" style="edgeStyle=none;html=1;fontSize=16;fontColor=#000000;strokeWidth=1;strokeColor=#000000;endArrow=blockThin;endFill=1;" parent="1" source="4" target="5" edge="1">
                    <mxGeometry relative="1" as="geometry"/>
                </mxCell>
                <mxCell id="4" value="少典" style="rounded=1;whiteSpace=wrap;html=1;fillColor=#E6E6E6;fontColor=#000000;fontSize=16;strokeColor=none;strokeWidth=2;" parent="1" vertex="1">
                    <mxGeometry x="566" y="120" width="50" height="30" as="geometry"/>
                </mxCell>
                <mxCell id="13" style="edgeStyle=orthogonalEdgeStyle;html=1;entryX=0.5;entryY=0;entryDx=0;entryDy=0;fontSize=14;fontColor=#000000;endArrow=blockThin;endFill=1;strokeColor=#000000;strokeWidth=1;" parent="1" source="5" target="9" edge="1">
                    <mxGeometry relative="1" as="geometry">
                        <Array as="points">
                            <mxPoint x="589" y="250"/>
                            <mxPoint x="372" y="250"/>
                        </Array>
                    </mxGeometry>
                </mxCell>
                <mxCell id="14" style="edgeStyle=orthogonalEdgeStyle;html=1;entryX=0.5;entryY=0;entryDx=0;entryDy=0;fontSize=14;fontColor=#000000;endArrow=blockThin;endFill=1;strokeColor=#000000;strokeWidth=1;" parent="1" source="5" target="10" edge="1">
                    <mxGeometry relative="1" as="geometry">
                        <Array as="points">
                            <mxPoint x="589" y="250"/>
                            <mxPoint x="706" y="250"/>
                        </Array>
                    </mxGeometry>
                </mxCell>
                <mxCell id="5" value="&lt;div style=&quot;font-size: 16px;&quot;&gt;姬轩辕&lt;/div&gt;" style="rounded=1;whiteSpace=wrap;html=1;fillColor=#1ba1e2;fontColor=#ffffff;fontSize=16;strokeColor=none;strokeWidth=2;" parent="1" vertex="1">
                    <mxGeometry x="561" y="190" width="60" height="30" as="geometry"/>
                </mxCell>
                <mxCell id="7" value="&lt;div style=&quot;font-size: 14px;&quot;&gt;附宝&lt;/div&gt;" style="text;html=1;align=center;verticalAlign=middle;resizable=0;points=[];autosize=1;strokeColor=none;fillColor=none;fontSize=14;fontColor=#000000;" parent="1" vertex="1">
                    <mxGeometry x="590" y="160" width="40" height="20" as="geometry"/>
                </mxCell>
                <mxCell id="21" value="" style="edgeStyle=orthogonalEdgeStyle;html=1;fontSize=16;fontColor=#000000;endArrow=blockThin;endFill=1;strokeColor=#000000;strokeWidth=1;" parent="1" source="9" target="20" edge="1">
                    <mxGeometry relative="1" as="geometry"/>
                </mxCell>
                <mxCell id="9" value="&lt;div style=&quot;font-size: 16px;&quot;&gt;&lt;div style=&quot;font-size: 16px;&quot;&gt;&lt;span style=&quot;font-size: 16px;&quot;&gt;玄嚣&lt;/span&gt;&lt;/div&gt;&lt;div style=&quot;font-size: 16px;&quot;&gt;&lt;/div&gt;&lt;/div&gt;" style="rounded=1;whiteSpace=wrap;html=1;fillColor=#E6E6E6;fontColor=#000000;fontSize=16;strokeColor=none;strokeWidth=2;" parent="1" vertex="1">
                    <mxGeometry x="347" y="270" width="50" height="30" as="geometry"/>
                </mxCell>
                <mxCell id="23" value="" style="edgeStyle=orthogonalEdgeStyle;html=1;fontSize=16;fontColor=#000000;endArrow=blockThin;endFill=1;strokeColor=#000000;strokeWidth=1;" parent="1" source="10" target="22" edge="1">
                    <mxGeometry relative="1" as="geometry"/>
                </mxCell>
                <mxCell id="10" value="&lt;div style=&quot;font-size: 16px;&quot;&gt;&lt;div style=&quot;font-size: 16px;&quot;&gt;&lt;span style=&quot;font-size: 16px;&quot;&gt;昌意&lt;/span&gt;&lt;/div&gt;&lt;/div&gt;&lt;div style=&quot;font-size: 16px;&quot;&gt;&lt;/div&gt;" style="rounded=1;whiteSpace=wrap;html=1;fillColor=#E6E6E6;fontColor=#000000;fontSize=16;strokeColor=none;strokeWidth=2;" parent="1" vertex="1">
                    <mxGeometry x="681" y="270" width="50" height="30" as="geometry"/>
                </mxCell>
                <mxCell id="18" value="&lt;div style=&quot;font-size: 14px&quot;&gt;&lt;div&gt;嫘祖&lt;/div&gt;&lt;/div&gt;" style="text;html=1;align=center;verticalAlign=middle;resizable=0;points=[];autosize=1;strokeColor=none;fillColor=none;fontSize=14;fontColor=#000000;" parent="1" vertex="1">
                    <mxGeometry x="587" y="222" width="40" height="20" as="geometry"/>
                </mxCell>
                <mxCell id="28" style="edgeStyle=orthogonalEdgeStyle;html=1;exitX=0.5;exitY=1;exitDx=0;exitDy=0;entryX=0.5;entryY=0;entryDx=0;entryDy=0;fontSize=14;fontColor=#000000;endArrow=blockThin;endFill=1;strokeColor=#000000;strokeWidth=1;" parent="1" source="20" target="25" edge="1">
                    <mxGeometry relative="1" as="geometry"/>
                </mxCell>
                <mxCell id="20" value="&lt;div style=&quot;font-size: 16px;&quot;&gt;&lt;div style=&quot;font-size: 16px;&quot;&gt;&lt;div style=&quot;font-size: 16px;&quot;&gt;&lt;span style=&quot;font-size: 16px;&quot;&gt;蟜极&lt;/span&gt;&lt;/div&gt;&lt;/div&gt;&lt;div style=&quot;font-size: 16px;&quot;&gt;&lt;/div&gt;&lt;/div&gt;" style="rounded=1;whiteSpace=wrap;html=1;fillColor=#E6E6E6;fontColor=#000000;fontSize=16;strokeColor=none;strokeWidth=2;" parent="1" vertex="1">
                    <mxGeometry x="347" y="335" width="50" height="30" as="geometry"/>
                </mxCell>
                <mxCell id="47" value="" style="edgeStyle=orthogonalEdgeStyle;html=1;fontSize=16;fontColor=#000000;endArrow=blockThin;endFill=1;strokeColor=#000000;strokeWidth=1;" parent="1" source="22" target="46" edge="1">
                    <mxGeometry relative="1" as="geometry"/>
                </mxCell>
                <mxCell id="68" style="edgeStyle=orthogonalEdgeStyle;html=1;entryX=0.5;entryY=0;entryDx=0;entryDy=0;fontSize=16;fontColor=#000000;endArrow=blockThin;endFill=1;strokeColor=#000000;strokeWidth=1;" parent="1" source="22" target="66" edge="1">
                    <mxGeometry relative="1" as="geometry">
                        <Array as="points">
                            <mxPoint x="706" y="380"/>
                            <mxPoint x="794" y="380"/>
                        </Array>
                    </mxGeometry>
                </mxCell>
                <mxCell id="102" style="edgeStyle=orthogonalEdgeStyle;html=1;exitX=0.5;exitY=1;exitDx=0;exitDy=0;fontSize=16;fontColor=#000000;endArrow=blockThin;endFill=1;strokeColor=#000000;strokeWidth=1;" parent="1" source="22" target="100" edge="1">
                    <mxGeometry relative="1" as="geometry">
                        <Array as="points">
                            <mxPoint x="706" y="380"/>
                            <mxPoint x="911" y="380"/>
                        </Array>
                    </mxGeometry>
                </mxCell>
                <mxCell id="116" style="edgeStyle=orthogonalEdgeStyle;shape=connector;rounded=1;html=1;exitX=0.5;exitY=1;exitDx=0;exitDy=0;entryX=0.5;entryY=0;entryDx=0;entryDy=0;labelBackgroundColor=default;fontFamily=Helvetica;fontSize=16;fontColor=#000000;endArrow=blockThin;endFill=1;strokeColor=#000000;strokeWidth=1;" parent="1" source="22" target="118" edge="1">
                    <mxGeometry relative="1" as="geometry">
                        <mxPoint x="1017" y="400" as="targetPoint"/>
                        <Array as="points">
                            <mxPoint x="706" y="380"/>
                            <mxPoint x="1017" y="380"/>
                        </Array>
                    </mxGeometry>
                </mxCell>
                <mxCell id="134" style="edgeStyle=orthogonalEdgeStyle;shape=connector;rounded=1;html=1;exitX=0.5;exitY=1;exitDx=0;exitDy=0;entryX=0.5;entryY=0;entryDx=0;entryDy=0;labelBackgroundColor=default;fontFamily=Helvetica;fontSize=16;fontColor=#000000;endArrow=blockThin;endFill=1;strokeColor=#000000;strokeWidth=1;" edge="1" parent="1" source="22" target="133">
                    <mxGeometry relative="1" as="geometry"/>
                </mxCell>
                <mxCell id="140" style="edgeStyle=orthogonalEdgeStyle;shape=connector;rounded=1;html=1;exitX=0.5;exitY=1;exitDx=0;exitDy=0;entryX=0.5;entryY=0;entryDx=0;entryDy=0;labelBackgroundColor=default;fontFamily=Helvetica;fontSize=16;fontColor=#000000;endArrow=blockThin;endFill=1;strokeColor=#000000;strokeWidth=1;" edge="1" parent="1" source="22" target="139">
                    <mxGeometry relative="1" as="geometry"/>
                </mxCell>
                <mxCell id="22" value="&lt;div style=&quot;font-size: 16px;&quot;&gt;&lt;div style=&quot;font-size: 16px;&quot;&gt;&lt;div style=&quot;font-size: 16px;&quot;&gt;&lt;span style=&quot;font-size: 16px;&quot;&gt;颛顼&lt;/span&gt;&lt;/div&gt;&lt;/div&gt;&lt;/div&gt;&lt;div style=&quot;font-size: 16px;&quot;&gt;&lt;/div&gt;" style="rounded=1;whiteSpace=wrap;html=1;fillColor=#1ba1e2;fontColor=#ffffff;fontSize=16;strokeColor=none;strokeWidth=2;" parent="1" vertex="1">
                    <mxGeometry x="681" y="335" width="50" height="30" as="geometry"/>
                </mxCell>
                <mxCell id="24" value="&lt;div style=&quot;font-size: 14px;&quot;&gt;&lt;div style=&quot;font-size: 14px;&quot;&gt;&lt;div style=&quot;font-size: 14px;&quot;&gt;&lt;span style=&quot;font-size: 14px;&quot;&gt;高阳&lt;/span&gt;&lt;/div&gt;&lt;/div&gt;&lt;/div&gt;" style="text;html=1;align=center;verticalAlign=middle;resizable=0;points=[];autosize=1;strokeColor=none;fillColor=#9999FF;fontSize=14;fontColor=#000000;rounded=1;" parent="1" vertex="1">
                    <mxGeometry x="731" y="340" width="40" height="20" as="geometry"/>
                </mxCell>
                <mxCell id="31" style="edgeStyle=orthogonalEdgeStyle;html=1;exitX=0.5;exitY=1;exitDx=0;exitDy=0;entryX=0.5;entryY=0;entryDx=0;entryDy=0;fontSize=16;fontColor=#000000;endArrow=blockThin;endFill=1;strokeColor=#000000;strokeWidth=1;" parent="1" source="25" target="29" edge="1">
                    <mxGeometry relative="1" as="geometry">
                        <Array as="points">
                            <mxPoint x="372" y="440"/>
                            <mxPoint x="439" y="440"/>
                        </Array>
                    </mxGeometry>
                </mxCell>
                <mxCell id="32" style="edgeStyle=orthogonalEdgeStyle;html=1;entryX=0.5;entryY=0;entryDx=0;entryDy=0;fontSize=16;fontColor=#000000;endArrow=blockThin;endFill=1;strokeColor=#000000;strokeWidth=1;" parent="1" source="25" target="30" edge="1">
                    <mxGeometry relative="1" as="geometry">
                        <Array as="points">
                            <mxPoint x="372" y="440"/>
                            <mxPoint x="517" y="440"/>
                        </Array>
                    </mxGeometry>
                </mxCell>
                <mxCell id="92" style="edgeStyle=orthogonalEdgeStyle;html=1;exitX=0.5;exitY=1;exitDx=0;exitDy=0;entryX=0.5;entryY=0;entryDx=0;entryDy=0;fontSize=16;fontColor=#000000;endArrow=blockThin;endFill=1;strokeColor=#000000;strokeWidth=1;" parent="1" source="25" target="89" edge="1">
                    <mxGeometry relative="1" as="geometry"/>
                </mxCell>
                <mxCell id="96" style="edgeStyle=orthogonalEdgeStyle;html=1;exitX=0.5;exitY=1;exitDx=0;exitDy=0;entryX=0.5;entryY=0;entryDx=0;entryDy=0;fontSize=16;fontColor=#000000;endArrow=blockThin;endFill=1;strokeColor=#000000;strokeWidth=1;" parent="1" source="25" target="94" edge="1">
                    <mxGeometry relative="1" as="geometry">
                        <Array as="points">
                            <mxPoint x="372" y="440"/>
                            <mxPoint x="276" y="440"/>
                        </Array>
                    </mxGeometry>
                </mxCell>
                <mxCell id="136" style="edgeStyle=orthogonalEdgeStyle;shape=connector;rounded=1;html=1;exitX=0.5;exitY=1;exitDx=0;exitDy=0;entryX=0.5;entryY=0;entryDx=0;entryDy=0;labelBackgroundColor=default;fontFamily=Helvetica;fontSize=16;fontColor=#000000;endArrow=blockThin;endFill=1;strokeColor=#000000;strokeWidth=1;" edge="1" parent="1" source="25" target="135">
                    <mxGeometry relative="1" as="geometry">
                        <Array as="points">
                            <mxPoint x="372" y="440"/>
                            <mxPoint x="195" y="440"/>
                        </Array>
                    </mxGeometry>
                </mxCell>
                <mxCell id="25" value="&lt;div style=&quot;font-size: 16px;&quot;&gt;&lt;div style=&quot;font-size: 16px;&quot;&gt;&lt;div style=&quot;font-size: 16px;&quot;&gt;&lt;div style=&quot;font-size: 16px;&quot;&gt;喾&lt;/div&gt;&lt;/div&gt;&lt;/div&gt;&lt;div style=&quot;font-size: 16px;&quot;&gt;&lt;/div&gt;&lt;/div&gt;" style="rounded=1;whiteSpace=wrap;html=1;fillColor=#1ba1e2;fontColor=#ffffff;fontSize=16;strokeColor=none;strokeWidth=2;" parent="1" vertex="1">
                    <mxGeometry x="347" y="400" width="50" height="30" as="geometry"/>
                </mxCell>
                <mxCell id="26" value="&lt;div style=&quot;font-size: 14px;&quot;&gt;&lt;div style=&quot;font-size: 14px;&quot;&gt;&lt;div style=&quot;font-size: 14px;&quot;&gt;&lt;div style=&quot;font-size: 14px;&quot;&gt;&lt;span style=&quot;font-size: 14px;&quot;&gt;高辛&lt;/span&gt;&lt;/div&gt;&lt;/div&gt;&lt;/div&gt;&lt;/div&gt;" style="text;html=1;align=center;verticalAlign=middle;resizable=0;points=[];autosize=1;strokeColor=none;fillColor=#9999FF;fontSize=14;fontColor=#000000;rounded=1;" parent="1" vertex="1">
                    <mxGeometry x="397" y="405" width="40" height="20" as="geometry"/>
                </mxCell>
                <mxCell id="91" style="edgeStyle=orthogonalEdgeStyle;html=1;exitX=0.5;exitY=1;exitDx=0;exitDy=0;entryX=0.5;entryY=0;entryDx=0;entryDy=0;fontSize=16;fontColor=#000000;endArrow=blockThin;endFill=1;strokeColor=#000000;strokeWidth=1;" parent="1" source="89" target="90" edge="1">
                    <mxGeometry relative="1" as="geometry"/>
                </mxCell>
                <mxCell id="89" value="&lt;div style=&quot;font-size: 16px&quot;&gt;&lt;div style=&quot;font-size: 16px&quot;&gt;&lt;div style=&quot;font-size: 16px&quot;&gt;&lt;span style=&quot;font-size: 16px&quot;&gt;契&lt;/span&gt;&lt;/div&gt;&lt;/div&gt;&lt;div style=&quot;font-size: 16px&quot;&gt;&lt;/div&gt;&lt;/div&gt;" style="rounded=1;whiteSpace=wrap;html=1;fillColor=#E6E6E6;fontColor=#000000;fontSize=16;strokeColor=none;strokeWidth=2;" parent="1" vertex="1">
                    <mxGeometry x="347" y="470" width="50" height="30" as="geometry"/>
                </mxCell>
                <mxCell id="90" value="&lt;div style=&quot;font-size: 16px&quot;&gt;&lt;div style=&quot;font-size: 16px&quot;&gt;&lt;div style=&quot;font-size: 16px&quot;&gt;&lt;div style=&quot;font-size: 16px&quot;&gt;【商世系】&lt;/div&gt;&lt;/div&gt;&lt;/div&gt;&lt;/div&gt;" style="rounded=1;whiteSpace=wrap;html=1;fillColor=#FFFF00;fontColor=#000000;fontSize=16;strokeColor=none;strokeWidth=2;" parent="1" vertex="1">
                    <mxGeometry x="329" y="543" width="85" height="30" as="geometry"/>
                </mxCell>
                <mxCell id="93" value="&lt;div style=&quot;font-size: 14px&quot;&gt;&lt;div style=&quot;font-size: 14px&quot;&gt;&lt;div style=&quot;font-size: 14px&quot;&gt;&lt;div style=&quot;font-size: 14px&quot;&gt;&lt;div style=&quot;font-size: 14px&quot;&gt;简狄&lt;/div&gt;&lt;/div&gt;&lt;/div&gt;&lt;/div&gt;&lt;/div&gt;" style="text;html=1;align=center;verticalAlign=middle;resizable=0;points=[];autosize=1;strokeColor=none;fillColor=none;fontSize=14;fontColor=#000000;" parent="1" vertex="1">
                    <mxGeometry x="369" y="446" width="40" height="20" as="geometry"/>
                </mxCell>
                <mxCell id="99" style="edgeStyle=orthogonalEdgeStyle;html=1;exitX=0.5;exitY=1;exitDx=0;exitDy=0;entryX=0.5;entryY=0;entryDx=0;entryDy=0;fontSize=16;fontColor=#000000;endArrow=blockThin;endFill=1;strokeColor=#000000;strokeWidth=1;" parent="1" source="94" target="98" edge="1">
                    <mxGeometry relative="1" as="geometry"/>
                </mxCell>
                <mxCell id="94" value="&lt;div style=&quot;font-size: 16px&quot;&gt;&lt;div style=&quot;font-size: 16px&quot;&gt;&lt;div style=&quot;font-size: 16px&quot;&gt;&lt;span style=&quot;font-size: 16px&quot;&gt;弃&lt;/span&gt;&lt;/div&gt;&lt;/div&gt;&lt;div style=&quot;font-size: 16px&quot;&gt;&lt;/div&gt;&lt;/div&gt;" style="rounded=1;whiteSpace=wrap;html=1;fillColor=#E6E6E6;fontColor=#000000;fontSize=16;strokeColor=none;strokeWidth=2;" parent="1" vertex="1">
                    <mxGeometry x="251" y="470" width="50" height="30" as="geometry"/>
                </mxCell>
                <mxCell id="95" value="&lt;div style=&quot;font-size: 14px&quot;&gt;&lt;div style=&quot;font-size: 14px&quot;&gt;&lt;div style=&quot;font-size: 14px&quot;&gt;&lt;div style=&quot;font-size: 14px&quot;&gt;&lt;span style=&quot;font-size: 14px&quot;&gt;后稷&lt;/span&gt;&lt;/div&gt;&lt;/div&gt;&lt;/div&gt;&lt;/div&gt;" style="text;html=1;align=center;verticalAlign=middle;resizable=0;points=[];autosize=1;strokeColor=none;fillColor=none;fontSize=14;fontColor=#000000;" parent="1" vertex="1">
                    <mxGeometry x="296" y="475" width="40" height="20" as="geometry"/>
                </mxCell>
                <mxCell id="97" value="&lt;div style=&quot;font-size: 14px&quot;&gt;&lt;div style=&quot;font-size: 14px&quot;&gt;&lt;div style=&quot;font-size: 14px&quot;&gt;&lt;div style=&quot;font-size: 14px&quot;&gt;&lt;div style=&quot;font-size: 14px&quot;&gt;姜原&lt;/div&gt;&lt;/div&gt;&lt;/div&gt;&lt;/div&gt;&lt;/div&gt;" style="text;html=1;align=center;verticalAlign=middle;resizable=0;points=[];autosize=1;strokeColor=none;fillColor=none;fontSize=14;fontColor=#000000;" parent="1" vertex="1">
                    <mxGeometry x="274" y="446" width="40" height="20" as="geometry"/>
                </mxCell>
                <mxCell id="98" value="&lt;div style=&quot;font-size: 16px&quot;&gt;&lt;div style=&quot;font-size: 16px&quot;&gt;&lt;div style=&quot;font-size: 16px&quot;&gt;&lt;div style=&quot;font-size: 16px&quot;&gt;【周世系】&lt;/div&gt;&lt;/div&gt;&lt;/div&gt;&lt;/div&gt;" style="rounded=1;whiteSpace=wrap;html=1;fillColor=#FFFF00;fontColor=#000000;fontSize=16;strokeColor=none;strokeWidth=2;" parent="1" vertex="1">
                    <mxGeometry x="233.5" y="543" width="85" height="30" as="geometry"/>
                </mxCell>
                <mxCell id="104" style="edgeStyle=orthogonalEdgeStyle;html=1;entryX=0.5;entryY=0;entryDx=0;entryDy=0;fontSize=16;fontColor=#000000;endArrow=blockThin;endFill=1;strokeColor=#000000;strokeWidth=1;" parent="1" source="100" target="103" edge="1">
                    <mxGeometry relative="1" as="geometry"/>
                </mxCell>
                <mxCell id="100" value="&lt;div style=&quot;font-size: 16px&quot;&gt;&lt;div style=&quot;font-size: 16px&quot;&gt;&lt;div style=&quot;font-size: 16px&quot;&gt;&lt;div style=&quot;font-size: 16px&quot;&gt;&lt;div style=&quot;font-size: 16px&quot;&gt;&lt;div style=&quot;font-size: 16px&quot;&gt;&lt;span style=&quot;font-size: 16px&quot;&gt;女脩&lt;/span&gt;&lt;/div&gt;&lt;/div&gt;&lt;/div&gt;&lt;/div&gt;&lt;/div&gt;&lt;div style=&quot;font-size: 16px&quot;&gt;&lt;/div&gt;&lt;/div&gt;" style="rounded=1;whiteSpace=wrap;html=1;fillColor=#d80073;fontColor=#ffffff;fontSize=16;strokeColor=none;strokeWidth=2;" parent="1" vertex="1">
                    <mxGeometry x="886" y="400" width="60" height="30" as="geometry"/>
                </mxCell>
                <mxCell id="107" style="edgeStyle=orthogonalEdgeStyle;html=1;entryX=0.5;entryY=0;entryDx=0;entryDy=0;fontSize=16;fontColor=#000000;endArrow=blockThin;endFill=1;strokeColor=#000000;strokeWidth=1;" parent="1" source="103" target="105" edge="1">
                    <mxGeometry relative="1" as="geometry"/>
                </mxCell>
                <mxCell id="103" value="&lt;div style=&quot;font-size: 16px&quot;&gt;&lt;div style=&quot;font-size: 16px&quot;&gt;&lt;div style=&quot;font-size: 16px&quot;&gt;&lt;div style=&quot;font-size: 16px&quot;&gt;&lt;div style=&quot;font-size: 16px&quot;&gt;&lt;div style=&quot;font-size: 16px&quot;&gt;&lt;span style=&quot;font-size: 16px&quot;&gt;大业&lt;/span&gt;&lt;/div&gt;&lt;/div&gt;&lt;/div&gt;&lt;/div&gt;&lt;/div&gt;&lt;div style=&quot;font-size: 16px&quot;&gt;&lt;/div&gt;&lt;/div&gt;" style="rounded=1;whiteSpace=wrap;html=1;fillColor=#E6E6E6;fontColor=#000000;fontSize=16;strokeColor=none;strokeWidth=2;" parent="1" vertex="1">
                    <mxGeometry x="891" y="470" width="50" height="30" as="geometry"/>
                </mxCell>
                <mxCell id="110" style="edgeStyle=orthogonalEdgeStyle;html=1;entryX=0.5;entryY=0;entryDx=0;entryDy=0;fontSize=16;fontColor=#000000;endArrow=blockThin;endFill=1;strokeColor=#000000;strokeWidth=1;" parent="1" source="105" target="109" edge="1">
                    <mxGeometry relative="1" as="geometry"/>
                </mxCell>
                <mxCell id="105" value="&lt;div style=&quot;font-size: 16px&quot;&gt;&lt;div style=&quot;font-size: 16px&quot;&gt;&lt;div style=&quot;font-size: 16px&quot;&gt;&lt;div style=&quot;font-size: 16px&quot;&gt;&lt;div style=&quot;font-size: 16px&quot;&gt;&lt;div style=&quot;font-size: 16px&quot;&gt;&lt;span style=&quot;font-size: 16px&quot;&gt;大费&lt;/span&gt;&lt;/div&gt;&lt;/div&gt;&lt;/div&gt;&lt;/div&gt;&lt;/div&gt;&lt;div style=&quot;font-size: 16px&quot;&gt;&lt;/div&gt;&lt;/div&gt;" style="rounded=1;whiteSpace=wrap;html=1;fillColor=#E6E6E6;fontColor=#000000;fontSize=16;strokeColor=none;strokeWidth=2;" parent="1" vertex="1">
                    <mxGeometry x="891" y="543" width="50" height="30" as="geometry"/>
                </mxCell>
                <mxCell id="108" value="&lt;div style=&quot;font-size: 14px&quot;&gt;&lt;div style=&quot;font-size: 14px&quot;&gt;&lt;div style=&quot;font-size: 14px&quot;&gt;&lt;div style=&quot;font-size: 14px&quot;&gt;&lt;div style=&quot;font-size: 14px&quot;&gt;&lt;div style=&quot;font-size: 14px&quot;&gt;&lt;div&gt;女华&lt;/div&gt;&lt;/div&gt;&lt;/div&gt;&lt;/div&gt;&lt;/div&gt;&lt;/div&gt;&lt;/div&gt;" style="text;html=1;align=center;verticalAlign=middle;resizable=0;points=[];autosize=1;strokeColor=none;fillColor=none;fontSize=14;fontColor=#000000;" parent="1" vertex="1">
                    <mxGeometry x="914" y="517" width="40" height="20" as="geometry"/>
                </mxCell>
                <mxCell id="109" value="&lt;div style=&quot;font-size: 16px&quot;&gt;&lt;div style=&quot;font-size: 16px&quot;&gt;&lt;div style=&quot;font-size: 16px&quot;&gt;&lt;div style=&quot;font-size: 16px&quot;&gt;【秦世系】&lt;/div&gt;&lt;/div&gt;&lt;/div&gt;&lt;/div&gt;" style="rounded=1;whiteSpace=wrap;html=1;fillColor=#FFFF00;fontColor=#000000;fontSize=16;strokeColor=none;strokeWidth=2;" parent="1" vertex="1">
                    <mxGeometry x="873.5" y="610" width="85" height="30" as="geometry"/>
                </mxCell>
                <mxCell id="113" value="&lt;div style=&quot;font-size: 14px&quot;&gt;&lt;div style=&quot;font-size: 14px&quot;&gt;&lt;div style=&quot;font-size: 14px&quot;&gt;&lt;div style=&quot;font-size: 14px&quot;&gt;&lt;div style=&quot;font-size: 14px&quot;&gt;&lt;div style=&quot;font-size: 14px&quot;&gt;&lt;div&gt;伯益&lt;/div&gt;&lt;/div&gt;&lt;/div&gt;&lt;/div&gt;&lt;/div&gt;&lt;/div&gt;&lt;/div&gt;" style="text;html=1;align=center;verticalAlign=middle;resizable=0;points=[];autosize=1;strokeColor=none;fillColor=none;fontSize=14;fontColor=#000000;" parent="1" vertex="1">
                    <mxGeometry x="939" y="548" width="40" height="20" as="geometry"/>
                </mxCell>
                <mxCell id="mXEesTna3bJHWV5R9JGP-120" style="edgeStyle=orthogonalEdgeStyle;shape=connector;rounded=1;html=1;exitX=0.5;exitY=1;exitDx=0;exitDy=0;entryX=0.5;entryY=0;entryDx=0;entryDy=0;labelBackgroundColor=default;fontFamily=Helvetica;fontSize=16;fontColor=#000000;endArrow=blockThin;endFill=1;strokeColor=#000000;strokeWidth=1;" parent="1" source="118" target="mXEesTna3bJHWV5R9JGP-119" edge="1">
                    <mxGeometry relative="1" as="geometry"/>
                </mxCell>
                <mxCell id="118" value="&lt;div style=&quot;font-size: 16px&quot;&gt;&lt;div style=&quot;font-size: 16px&quot;&gt;&lt;div style=&quot;font-size: 16px&quot;&gt;&lt;div style=&quot;font-size: 16px&quot;&gt;&lt;div style=&quot;font-size: 16px&quot;&gt;&lt;div style=&quot;font-size: 16px&quot;&gt;&lt;span style=&quot;font-size: 16px&quot;&gt;称&lt;/span&gt;&lt;/div&gt;&lt;/div&gt;&lt;/div&gt;&lt;/div&gt;&lt;/div&gt;&lt;div style=&quot;font-size: 16px&quot;&gt;&lt;/div&gt;&lt;/div&gt;" style="rounded=1;whiteSpace=wrap;html=1;fillColor=#E6E6E6;fontColor=#000000;fontSize=16;strokeColor=none;strokeWidth=2;" parent="1" vertex="1">
                    <mxGeometry x="992" y="400" width="50" height="30" as="geometry"/>
                </mxCell>
                <mxCell id="mXEesTna3bJHWV5R9JGP-122" style="edgeStyle=orthogonalEdgeStyle;shape=connector;rounded=1;html=1;exitX=0.5;exitY=1;exitDx=0;exitDy=0;entryX=0.5;entryY=0;entryDx=0;entryDy=0;labelBackgroundColor=default;fontFamily=Helvetica;fontSize=16;fontColor=#000000;endArrow=blockThin;endFill=1;strokeColor=#000000;strokeWidth=1;" parent="1" source="mXEesTna3bJHWV5R9JGP-119" target="mXEesTna3bJHWV5R9JGP-121" edge="1">
                    <mxGeometry relative="1" as="geometry"/>
                </mxCell>
                <mxCell id="mXEesTna3bJHWV5R9JGP-124" style="edgeStyle=orthogonalEdgeStyle;shape=connector;rounded=1;html=1;exitX=0.5;exitY=1;exitDx=0;exitDy=0;entryX=0.5;entryY=0;entryDx=0;entryDy=0;labelBackgroundColor=default;fontFamily=Helvetica;fontSize=16;fontColor=#000000;endArrow=blockThin;endFill=1;strokeColor=#000000;strokeWidth=1;" parent="1" source="mXEesTna3bJHWV5R9JGP-119" target="mXEesTna3bJHWV5R9JGP-123" edge="1">
                    <mxGeometry relative="1" as="geometry"/>
                </mxCell>
                <mxCell id="mXEesTna3bJHWV5R9JGP-119" value="&lt;div style=&quot;font-size: 16px&quot;&gt;&lt;div style=&quot;font-size: 16px&quot;&gt;&lt;div style=&quot;font-size: 16px&quot;&gt;&lt;div style=&quot;font-size: 16px&quot;&gt;&lt;div style=&quot;font-size: 16px&quot;&gt;&lt;div style=&quot;font-size: 16px&quot;&gt;&lt;span style=&quot;font-size: 16px&quot;&gt;卷章&lt;/span&gt;&lt;/div&gt;&lt;/div&gt;&lt;/div&gt;&lt;/div&gt;&lt;/div&gt;&lt;div style=&quot;font-size: 16px&quot;&gt;&lt;/div&gt;&lt;/div&gt;" style="rounded=1;whiteSpace=wrap;html=1;fillColor=#E6E6E6;fontColor=#000000;fontSize=16;strokeColor=none;strokeWidth=2;" parent="1" vertex="1">
                    <mxGeometry x="992" y="470" width="50" height="30" as="geometry"/>
                </mxCell>
                <mxCell id="mXEesTna3bJHWV5R9JGP-121" value="重黎" style="rounded=1;whiteSpace=wrap;html=1;fillColor=#E6E6E6;fontColor=#000000;fontSize=16;strokeColor=none;strokeWidth=2;" parent="1" vertex="1">
                    <mxGeometry x="992" y="543" width="50" height="30" as="geometry"/>
                </mxCell>
                <mxCell id="mXEesTna3bJHWV5R9JGP-126" style="edgeStyle=orthogonalEdgeStyle;shape=connector;rounded=1;html=1;exitX=0.5;exitY=1;exitDx=0;exitDy=0;entryX=0.5;entryY=0;entryDx=0;entryDy=0;labelBackgroundColor=default;fontFamily=Helvetica;fontSize=16;fontColor=#000000;endArrow=blockThin;endFill=1;strokeColor=#000000;strokeWidth=1;" parent="1" source="mXEesTna3bJHWV5R9JGP-123" target="mXEesTna3bJHWV5R9JGP-125" edge="1">
                    <mxGeometry relative="1" as="geometry"/>
                </mxCell>
                <mxCell id="mXEesTna3bJHWV5R9JGP-123" value="吴回" style="rounded=1;whiteSpace=wrap;html=1;fillColor=#E6E6E6;fontColor=#000000;fontSize=16;strokeColor=none;strokeWidth=2;" parent="1" vertex="1">
                    <mxGeometry x="1072" y="543" width="50" height="30" as="geometry"/>
                </mxCell>
                <mxCell id="mXEesTna3bJHWV5R9JGP-136" style="edgeStyle=orthogonalEdgeStyle;shape=connector;rounded=1;html=1;exitX=0.5;exitY=1;exitDx=0;exitDy=0;entryX=0.5;entryY=0;entryDx=0;entryDy=0;labelBackgroundColor=default;fontFamily=Helvetica;fontSize=16;fontColor=#000000;endArrow=blockThin;endFill=1;strokeColor=#000000;strokeWidth=1;" parent="1" source="mXEesTna3bJHWV5R9JGP-125" target="mXEesTna3bJHWV5R9JGP-128" edge="1">
                    <mxGeometry relative="1" as="geometry"/>
                </mxCell>
                <mxCell id="mXEesTna3bJHWV5R9JGP-137" style="edgeStyle=orthogonalEdgeStyle;shape=connector;rounded=1;html=1;exitX=0.5;exitY=1;exitDx=0;exitDy=0;entryX=0.5;entryY=0;entryDx=0;entryDy=0;labelBackgroundColor=default;fontFamily=Helvetica;fontSize=16;fontColor=#000000;endArrow=blockThin;endFill=1;strokeColor=#000000;strokeWidth=1;" parent="1" source="mXEesTna3bJHWV5R9JGP-125" target="mXEesTna3bJHWV5R9JGP-131" edge="1">
                    <mxGeometry relative="1" as="geometry"/>
                </mxCell>
                <mxCell id="mXEesTna3bJHWV5R9JGP-138" style="edgeStyle=orthogonalEdgeStyle;shape=connector;rounded=1;html=1;exitX=0.5;exitY=1;exitDx=0;exitDy=0;entryX=0.5;entryY=0;entryDx=0;entryDy=0;labelBackgroundColor=default;fontFamily=Helvetica;fontSize=16;fontColor=#000000;endArrow=blockThin;endFill=1;strokeColor=#000000;strokeWidth=1;" parent="1" source="mXEesTna3bJHWV5R9JGP-125" target="mXEesTna3bJHWV5R9JGP-132" edge="1">
                    <mxGeometry relative="1" as="geometry"/>
                </mxCell>
                <mxCell id="mXEesTna3bJHWV5R9JGP-139" style="edgeStyle=orthogonalEdgeStyle;shape=connector;rounded=1;html=1;exitX=0.5;exitY=1;exitDx=0;exitDy=0;entryX=0.5;entryY=0;entryDx=0;entryDy=0;labelBackgroundColor=default;fontFamily=Helvetica;fontSize=16;fontColor=#000000;endArrow=blockThin;endFill=1;strokeColor=#000000;strokeWidth=1;" parent="1" source="mXEesTna3bJHWV5R9JGP-125" target="mXEesTna3bJHWV5R9JGP-133" edge="1">
                    <mxGeometry relative="1" as="geometry"/>
                </mxCell>
                <mxCell id="mXEesTna3bJHWV5R9JGP-140" style="edgeStyle=orthogonalEdgeStyle;shape=connector;rounded=1;html=1;exitX=0.5;exitY=1;exitDx=0;exitDy=0;entryX=0.5;entryY=0;entryDx=0;entryDy=0;labelBackgroundColor=default;fontFamily=Helvetica;fontSize=16;fontColor=#000000;endArrow=blockThin;endFill=1;strokeColor=#000000;strokeWidth=1;" parent="1" source="mXEesTna3bJHWV5R9JGP-125" target="mXEesTna3bJHWV5R9JGP-134" edge="1">
                    <mxGeometry relative="1" as="geometry"/>
                </mxCell>
                <mxCell id="mXEesTna3bJHWV5R9JGP-141" style="edgeStyle=orthogonalEdgeStyle;shape=connector;rounded=1;html=1;exitX=0.5;exitY=1;exitDx=0;exitDy=0;entryX=0.5;entryY=0;entryDx=0;entryDy=0;labelBackgroundColor=default;fontFamily=Helvetica;fontSize=16;fontColor=#000000;endArrow=blockThin;endFill=1;strokeColor=#000000;strokeWidth=1;" parent="1" source="mXEesTna3bJHWV5R9JGP-125" target="mXEesTna3bJHWV5R9JGP-135" edge="1">
                    <mxGeometry relative="1" as="geometry"/>
                </mxCell>
                <mxCell id="mXEesTna3bJHWV5R9JGP-125" value="陆终" style="rounded=1;whiteSpace=wrap;html=1;fillColor=#E6E6E6;fontColor=#000000;fontSize=16;strokeColor=none;strokeWidth=2;" parent="1" vertex="1">
                    <mxGeometry x="1072" y="610" width="50" height="30" as="geometry"/>
                </mxCell>
                <mxCell id="mXEesTna3bJHWV5R9JGP-128" value="昆吾" style="rounded=1;whiteSpace=wrap;html=1;fillColor=#E6E6E6;fontColor=#000000;fontSize=16;strokeColor=none;strokeWidth=2;" parent="1" vertex="1">
                    <mxGeometry x="927" y="680" width="50" height="30" as="geometry"/>
                </mxCell>
                <mxCell id="mXEesTna3bJHWV5R9JGP-131" value="参胡" style="rounded=1;whiteSpace=wrap;html=1;fillColor=#E6E6E6;fontColor=#000000;fontSize=16;strokeColor=none;strokeWidth=2;" parent="1" vertex="1">
                    <mxGeometry x="987" y="680" width="50" height="30" as="geometry"/>
                </mxCell>
                <mxCell id="mXEesTna3bJHWV5R9JGP-132" value="彭祖" style="rounded=1;whiteSpace=wrap;html=1;fillColor=#E6E6E6;fontColor=#000000;fontSize=16;strokeColor=none;strokeWidth=2;" parent="1" vertex="1">
                    <mxGeometry x="1047" y="680" width="50" height="30" as="geometry"/>
                </mxCell>
                <mxCell id="mXEesTna3bJHWV5R9JGP-133" value="会人" style="rounded=1;whiteSpace=wrap;html=1;fillColor=#E6E6E6;fontColor=#000000;fontSize=16;strokeColor=none;strokeWidth=2;" parent="1" vertex="1">
                    <mxGeometry x="1107" y="680" width="50" height="30" as="geometry"/>
                </mxCell>
                <mxCell id="mXEesTna3bJHWV5R9JGP-134" value="曹姓" style="rounded=1;whiteSpace=wrap;html=1;fillColor=#E6E6E6;fontColor=#000000;fontSize=16;strokeColor=none;strokeWidth=2;" parent="1" vertex="1">
                    <mxGeometry x="1167" y="680" width="50" height="30" as="geometry"/>
                </mxCell>
                <mxCell id="mXEesTna3bJHWV5R9JGP-144" style="edgeStyle=orthogonalEdgeStyle;shape=connector;rounded=1;html=1;exitX=0.5;exitY=1;exitDx=0;exitDy=0;entryX=0.5;entryY=0;entryDx=0;entryDy=0;labelBackgroundColor=default;fontFamily=Helvetica;fontSize=16;fontColor=#000000;endArrow=blockThin;endFill=1;strokeColor=#000000;strokeWidth=1;" parent="1" source="mXEesTna3bJHWV5R9JGP-135" target="mXEesTna3bJHWV5R9JGP-142" edge="1">
                    <mxGeometry relative="1" as="geometry"/>
                </mxCell>
                <mxCell id="mXEesTna3bJHWV5R9JGP-135" value="季连" style="rounded=1;whiteSpace=wrap;html=1;fillColor=#E6E6E6;fontColor=#000000;fontSize=16;strokeColor=none;strokeWidth=2;" parent="1" vertex="1">
                    <mxGeometry x="1224" y="680" width="50" height="30" as="geometry"/>
                </mxCell>
                <mxCell id="mXEesTna3bJHWV5R9JGP-147" style="edgeStyle=orthogonalEdgeStyle;shape=connector;rounded=1;html=1;exitX=0.5;exitY=1;exitDx=0;exitDy=0;entryX=0.5;entryY=0;entryDx=0;entryDy=0;labelBackgroundColor=default;fontFamily=Helvetica;fontSize=16;fontColor=#000000;endArrow=blockThin;endFill=1;strokeColor=#000000;strokeWidth=1;" parent="1" source="mXEesTna3bJHWV5R9JGP-142" target="mXEesTna3bJHWV5R9JGP-145" edge="1">
                    <mxGeometry relative="1" as="geometry"/>
                </mxCell>
                <mxCell id="mXEesTna3bJHWV5R9JGP-142" value="附沮" style="rounded=1;whiteSpace=wrap;html=1;fillColor=#E6E6E6;fontColor=#000000;fontSize=16;strokeColor=none;strokeWidth=2;" parent="1" vertex="1">
                    <mxGeometry x="1224" y="750" width="50" height="30" as="geometry"/>
                </mxCell>
                <mxCell id="mXEesTna3bJHWV5R9JGP-145" value="穴熊" style="rounded=1;whiteSpace=wrap;html=1;fillColor=#E6E6E6;fontColor=#000000;fontSize=16;strokeColor=none;strokeWidth=2;" parent="1" vertex="1">
                    <mxGeometry x="1224" y="820" width="50" height="30" as="geometry"/>
                </mxCell>
                <mxCell id="mXEesTna3bJHWV5R9JGP-151" style="edgeStyle=orthogonalEdgeStyle;shape=connector;rounded=1;html=1;exitX=0.5;exitY=1;exitDx=0;exitDy=0;entryX=0.5;entryY=0;entryDx=0;entryDy=0;labelBackgroundColor=default;fontFamily=Helvetica;fontSize=22;fontColor=#000000;endArrow=blockThin;endFill=1;strokeColor=#000000;strokeWidth=1;" parent="1" source="mXEesTna3bJHWV5R9JGP-148" target="mXEesTna3bJHWV5R9JGP-150" edge="1">
                    <mxGeometry relative="1" as="geometry"/>
                </mxCell>
                <mxCell id="mXEesTna3bJHWV5R9JGP-148" value="鬻熊" style="rounded=1;whiteSpace=wrap;html=1;fillColor=#E6E6E6;fontColor=#000000;fontSize=16;strokeColor=none;strokeWidth=2;" parent="1" vertex="1">
                    <mxGeometry x="1224" y="910" width="50" height="30" as="geometry"/>
                </mxCell>
                <mxCell id="mXEesTna3bJHWV5R9JGP-149" value="&lt;div style=&quot;font-size: 22px;&quot;&gt;&lt;div style=&quot;font-size: 22px;&quot;&gt;&lt;div style=&quot;font-size: 22px;&quot;&gt;&lt;div style=&quot;font-size: 22px;&quot;&gt;&lt;div style=&quot;font-size: 22px;&quot;&gt;&lt;div style=&quot;font-size: 22px;&quot;&gt;&lt;div style=&quot;font-size: 22px;&quot;&gt;...&lt;/div&gt;&lt;/div&gt;&lt;/div&gt;&lt;/div&gt;&lt;/div&gt;&lt;/div&gt;&lt;/div&gt;" style="text;html=1;align=center;verticalAlign=middle;resizable=0;points=[];autosize=1;strokeColor=none;fillColor=none;fontSize=22;fontColor=#000000;" parent="1" vertex="1">
                    <mxGeometry x="1234" y="860" width="30" height="30" as="geometry"/>
                </mxCell>
                <mxCell id="mXEesTna3bJHWV5R9JGP-150" value="&lt;div style=&quot;font-size: 16px&quot;&gt;&lt;div style=&quot;font-size: 16px&quot;&gt;&lt;div style=&quot;font-size: 16px&quot;&gt;&lt;div style=&quot;font-size: 16px&quot;&gt;【楚世系】&lt;/div&gt;&lt;/div&gt;&lt;/div&gt;&lt;/div&gt;" style="rounded=1;whiteSpace=wrap;html=1;fillColor=#FFFF00;fontColor=#000000;fontSize=16;strokeColor=none;strokeWidth=2;" parent="1" vertex="1">
                    <mxGeometry x="1206.5" y="980" width="85" height="30" as="geometry"/>
                </mxCell>
                <mxCell id="122" value="" style="rounded=1;whiteSpace=wrap;html=1;fontSize=16;fontColor=#ffffff;strokeColor=none;strokeWidth=2;fillColor=#d80073;" vertex="1" parent="1">
                    <mxGeometry x="1211" y="134" width="40" height="16" as="geometry"/>
                </mxCell>
                <mxCell id="123" value="&lt;div style=&quot;font-size: 14px&quot;&gt;女&lt;/div&gt;" style="text;html=1;align=center;verticalAlign=middle;resizable=0;points=[];autosize=1;strokeColor=none;fillColor=none;fontSize=14;fontColor=#000000;" vertex="1" parent="1">
                    <mxGeometry x="1256" y="132" width="30" height="20" as="geometry"/>
                </mxCell>
                <mxCell id="124" value="&lt;div style=&quot;font-size: 16px&quot;&gt;&lt;div style=&quot;font-size: 16px&quot;&gt;&lt;div style=&quot;font-size: 16px&quot;&gt;&lt;div style=&quot;font-size: 16px&quot;&gt;&lt;div style=&quot;font-size: 16px&quot;&gt;&lt;div style=&quot;font-size: 16px&quot;&gt;&lt;div style=&quot;font-size: 16px&quot;&gt;&lt;span style=&quot;font-size: 16px&quot;&gt;宵明&lt;/span&gt;&lt;/div&gt;&lt;/div&gt;&lt;/div&gt;&lt;/div&gt;&lt;/div&gt;&lt;/div&gt;&lt;div style=&quot;font-size: 16px&quot;&gt;&lt;/div&gt;&lt;/div&gt;" style="rounded=1;whiteSpace=wrap;html=1;fillColor=#d80073;fontColor=#ffffff;fontSize=16;strokeColor=none;strokeWidth=2;" vertex="1" parent="1">
                    <mxGeometry x="752" y="860" width="50" height="30" as="geometry"/>
                </mxCell>
                <mxCell id="125" value="&lt;div style=&quot;font-size: 16px&quot;&gt;&lt;div style=&quot;font-size: 16px&quot;&gt;&lt;div style=&quot;font-size: 16px&quot;&gt;&lt;div style=&quot;font-size: 16px&quot;&gt;&lt;div style=&quot;font-size: 16px&quot;&gt;&lt;div style=&quot;font-size: 16px&quot;&gt;&lt;div style=&quot;font-size: 16px&quot;&gt;&lt;span style=&quot;font-size: 16px&quot;&gt;烛光&lt;/span&gt;&lt;/div&gt;&lt;/div&gt;&lt;/div&gt;&lt;/div&gt;&lt;/div&gt;&lt;/div&gt;&lt;div style=&quot;font-size: 16px&quot;&gt;&lt;/div&gt;&lt;/div&gt;" style="rounded=1;whiteSpace=wrap;html=1;fillColor=#d80073;fontColor=#ffffff;fontSize=16;strokeColor=none;strokeWidth=2;" vertex="1" parent="1">
                    <mxGeometry x="822" y="860" width="50" height="30" as="geometry"/>
                </mxCell>
                <mxCell id="127" style="edgeStyle=orthogonalEdgeStyle;shape=connector;rounded=1;html=1;exitX=0.5;exitY=1;exitDx=0;exitDy=0;entryX=0.5;entryY=0;entryDx=0;entryDy=0;labelBackgroundColor=default;fontFamily=Helvetica;fontSize=16;fontColor=#000000;endArrow=blockThin;endFill=1;strokeColor=#000000;strokeWidth=1;" edge="1" parent="1" source="53" target="124">
                    <mxGeometry relative="1" as="geometry"/>
                </mxCell>
                <mxCell id="128" style="edgeStyle=orthogonalEdgeStyle;shape=connector;rounded=1;html=1;exitX=0.5;exitY=1;exitDx=0;exitDy=0;entryX=0.5;entryY=0;entryDx=0;entryDy=0;labelBackgroundColor=default;fontFamily=Helvetica;fontSize=16;fontColor=#000000;endArrow=blockThin;endFill=1;strokeColor=#000000;strokeWidth=1;" edge="1" parent="1" source="53" target="125">
                    <mxGeometry relative="1" as="geometry"/>
                </mxCell>
                <mxCell id="129" value="&lt;div style=&quot;font-size: 14px&quot;&gt;&lt;div style=&quot;font-size: 14px&quot;&gt;&lt;div style=&quot;font-size: 14px&quot;&gt;&lt;div style=&quot;font-size: 14px&quot;&gt;&lt;div style=&quot;font-size: 14px&quot;&gt;&lt;div style=&quot;font-size: 14px&quot;&gt;&lt;div&gt;登比氏&lt;/div&gt;&lt;/div&gt;&lt;/div&gt;&lt;/div&gt;&lt;/div&gt;&lt;/div&gt;&lt;/div&gt;" style="text;html=1;align=center;verticalAlign=middle;resizable=0;points=[];autosize=1;strokeColor=none;fillColor=none;fontSize=14;fontColor=#000000;" vertex="1" parent="1">
                    <mxGeometry x="717" y="800" width="60" height="20" as="geometry"/>
                </mxCell>
                <mxCell id="130" value="&lt;div style=&quot;font-size: 14px&quot;&gt;&lt;div style=&quot;font-size: 14px&quot;&gt;&lt;div style=&quot;font-size: 14px&quot;&gt;&lt;div style=&quot;font-size: 14px&quot;&gt;&lt;div style=&quot;font-size: 14px&quot;&gt;&lt;div style=&quot;font-size: 14px&quot;&gt;&lt;div&gt;女嬇&lt;/div&gt;&lt;/div&gt;&lt;/div&gt;&lt;/div&gt;&lt;/div&gt;&lt;/div&gt;&lt;/div&gt;" style="text;html=1;align=center;verticalAlign=middle;resizable=0;points=[];autosize=1;strokeColor=none;fillColor=none;fontSize=14;fontColor=#000000;" vertex="1" parent="1">
                    <mxGeometry x="1098" y="640" width="40" height="20" as="geometry"/>
                </mxCell>
                <mxCell id="131" value="&lt;div style=&quot;font-size: 16px&quot;&gt;&lt;div style=&quot;font-size: 16px&quot;&gt;&lt;div style=&quot;font-size: 16px&quot;&gt;&lt;div style=&quot;font-size: 16px&quot;&gt;&lt;div style=&quot;font-size: 16px&quot;&gt;&lt;div style=&quot;font-size: 16px&quot;&gt;&lt;div style=&quot;font-size: 16px&quot;&gt;&lt;span style=&quot;font-size: 16px&quot;&gt;无淫&lt;/span&gt;&lt;/div&gt;&lt;/div&gt;&lt;/div&gt;&lt;/div&gt;&lt;/div&gt;&lt;/div&gt;&lt;div style=&quot;font-size: 16px&quot;&gt;&lt;/div&gt;&lt;/div&gt;" style="rounded=1;whiteSpace=wrap;html=1;fillColor=#E6E6E6;fontColor=#000000;fontSize=16;strokeColor=none;strokeWidth=2;" vertex="1" parent="1">
                    <mxGeometry x="602" y="860" width="50" height="30" as="geometry"/>
                </mxCell>
                <mxCell id="132" style="edgeStyle=orthogonalEdgeStyle;shape=connector;rounded=1;html=1;exitX=0.5;exitY=1;exitDx=0;exitDy=0;entryX=0.5;entryY=0;entryDx=0;entryDy=0;labelBackgroundColor=default;fontFamily=Helvetica;fontSize=16;fontColor=#000000;endArrow=blockThin;endFill=1;strokeColor=#000000;strokeWidth=1;" edge="1" parent="1" source="53" target="131">
                    <mxGeometry relative="1" as="geometry"/>
                </mxCell>
                <mxCell id="133" value="&lt;div style=&quot;font-size: 16px&quot;&gt;&lt;div style=&quot;font-size: 16px&quot;&gt;&lt;div style=&quot;font-size: 16px&quot;&gt;&lt;div style=&quot;font-size: 16px&quot;&gt;&lt;div style=&quot;font-size: 16px&quot;&gt;&lt;span style=&quot;font-size: 16px&quot;&gt;伯服&lt;/span&gt;&lt;/div&gt;&lt;/div&gt;&lt;/div&gt;&lt;/div&gt;&lt;div style=&quot;font-size: 16px&quot;&gt;&lt;/div&gt;&lt;/div&gt;" style="rounded=1;whiteSpace=wrap;html=1;fillColor=#E6E6E6;fontColor=#000000;fontSize=16;strokeColor=none;strokeWidth=2;" vertex="1" parent="1">
                    <mxGeometry x="602" y="400" width="50" height="30" as="geometry"/>
                </mxCell>
                <mxCell id="138" style="edgeStyle=orthogonalEdgeStyle;shape=connector;rounded=1;html=1;exitX=0.5;exitY=1;exitDx=0;exitDy=0;entryX=0.5;entryY=0;entryDx=0;entryDy=0;labelBackgroundColor=default;fontFamily=Helvetica;fontSize=16;fontColor=#000000;endArrow=blockThin;endFill=1;strokeColor=#000000;strokeWidth=1;" edge="1" parent="1" source="135" target="137">
                    <mxGeometry relative="1" as="geometry"/>
                </mxCell>
                <mxCell id="135" value="&lt;div style=&quot;font-size: 16px&quot;&gt;&lt;div style=&quot;font-size: 16px&quot;&gt;&lt;div style=&quot;font-size: 16px&quot;&gt;&lt;span style=&quot;font-size: 16px&quot;&gt;台玺&lt;/span&gt;&lt;/div&gt;&lt;/div&gt;&lt;div style=&quot;font-size: 16px&quot;&gt;&lt;/div&gt;&lt;/div&gt;" style="rounded=1;whiteSpace=wrap;html=1;fillColor=#E6E6E6;fontColor=#000000;fontSize=16;strokeColor=none;strokeWidth=2;" vertex="1" parent="1">
                    <mxGeometry x="170" y="470" width="50" height="30" as="geometry"/>
                </mxCell>
                <mxCell id="137" value="&lt;div style=&quot;font-size: 16px&quot;&gt;&lt;div style=&quot;font-size: 16px&quot;&gt;&lt;div style=&quot;font-size: 16px&quot;&gt;&lt;span style=&quot;font-size: 16px&quot;&gt;叔均&lt;/span&gt;&lt;/div&gt;&lt;/div&gt;&lt;div style=&quot;font-size: 16px&quot;&gt;&lt;/div&gt;&lt;/div&gt;" style="rounded=1;whiteSpace=wrap;html=1;fillColor=#E6E6E6;fontColor=#000000;fontSize=16;strokeColor=none;strokeWidth=2;" vertex="1" parent="1">
                    <mxGeometry x="170" y="543" width="50" height="30" as="geometry"/>
                </mxCell>
                <mxCell id="142" style="edgeStyle=orthogonalEdgeStyle;shape=connector;rounded=1;html=1;exitX=0.5;exitY=1;exitDx=0;exitDy=0;entryX=0.5;entryY=0;entryDx=0;entryDy=0;labelBackgroundColor=default;fontFamily=Helvetica;fontSize=16;fontColor=#000000;endArrow=blockThin;endFill=1;strokeColor=#000000;strokeWidth=1;" edge="1" parent="1" source="139" target="141">
                    <mxGeometry relative="1" as="geometry"/>
                </mxCell>
                <mxCell id="139" value="&lt;div style=&quot;font-size: 16px&quot;&gt;&lt;div style=&quot;font-size: 16px&quot;&gt;&lt;div style=&quot;font-size: 16px&quot;&gt;&lt;div style=&quot;font-size: 16px&quot;&gt;&lt;div style=&quot;font-size: 16px&quot;&gt;&lt;div style=&quot;font-size: 16px&quot;&gt;&lt;span style=&quot;font-size: 16px&quot;&gt;老童&lt;/span&gt;&lt;/div&gt;&lt;/div&gt;&lt;/div&gt;&lt;/div&gt;&lt;/div&gt;&lt;div style=&quot;font-size: 16px&quot;&gt;&lt;/div&gt;&lt;/div&gt;" style="rounded=1;whiteSpace=wrap;html=1;fillColor=#E6E6E6;fontColor=#000000;fontSize=16;strokeColor=none;strokeWidth=2;" vertex="1" parent="1">
                    <mxGeometry x="1150" y="400" width="50" height="30" as="geometry"/>
                </mxCell>
                <mxCell id="144" style="edgeStyle=orthogonalEdgeStyle;shape=connector;rounded=1;html=1;exitX=0.5;exitY=1;exitDx=0;exitDy=0;entryX=0.5;entryY=0;entryDx=0;entryDy=0;labelBackgroundColor=default;fontFamily=Helvetica;fontSize=16;fontColor=#000000;endArrow=blockThin;endFill=1;strokeColor=#000000;strokeWidth=1;" edge="1" parent="1" source="141" target="143">
                    <mxGeometry relative="1" as="geometry"/>
                </mxCell>
                <mxCell id="141" value="&lt;div style=&quot;font-size: 16px&quot;&gt;&lt;div style=&quot;font-size: 16px&quot;&gt;&lt;div style=&quot;font-size: 16px&quot;&gt;&lt;div style=&quot;font-size: 16px&quot;&gt;&lt;div style=&quot;font-size: 16px&quot;&gt;&lt;div style=&quot;font-size: 16px&quot;&gt;&lt;span style=&quot;font-size: 16px&quot;&gt;祝融&lt;/span&gt;&lt;/div&gt;&lt;/div&gt;&lt;/div&gt;&lt;/div&gt;&lt;/div&gt;&lt;div style=&quot;font-size: 16px&quot;&gt;&lt;/div&gt;&lt;/div&gt;" style="rounded=1;whiteSpace=wrap;html=1;fillColor=#E6E6E6;fontColor=#000000;fontSize=16;strokeColor=none;strokeWidth=2;" vertex="1" parent="1">
                    <mxGeometry x="1150" y="470" width="50" height="30" as="geometry"/>
                </mxCell>
                <mxCell id="143" value="长琴" style="rounded=1;whiteSpace=wrap;html=1;fillColor=#E6E6E6;fontColor=#000000;fontSize=16;strokeColor=none;strokeWidth=2;" vertex="1" parent="1">
                    <mxGeometry x="1150" y="543" width="50" height="30" as="geometry"/>
                </mxCell>
            </root>
        </mxGraphModel>
    </diagram>
    <diagram id="69STNErigR_fLOtxWFAk" name="Page-2">
        <mxGraphModel dx="658" dy="529" grid="1" gridSize="10" guides="1" tooltips="1" connect="1" arrows="1" fold="1" page="1" pageScale="1" pageWidth="827" pageHeight="1169" math="0" shadow="0">
            <root>
                <mxCell id="g8MGEzddEO4zyux5536V-0"/>
                <mxCell id="g8MGEzddEO4zyux5536V-1" parent="g8MGEzddEO4zyux5536V-0"/>
                <mxCell id="g8MGEzddEO4zyux5536V-2" value="" style="edgeStyle=orthogonalEdgeStyle;rounded=0;orthogonalLoop=1;jettySize=auto;html=1;fontSize=17;" edge="1" parent="g8MGEzddEO4zyux5536V-1" source="g8MGEzddEO4zyux5536V-3" target="g8MGEzddEO4zyux5536V-5">
                    <mxGeometry relative="1" as="geometry"/>
                </mxCell>
                <mxCell id="g8MGEzddEO4zyux5536V-3" value="颛顼" style="rounded=1;whiteSpace=wrap;html=1;fontSize=17;" vertex="1" parent="g8MGEzddEO4zyux5536V-1">
                    <mxGeometry x="370" y="140" width="66" height="40" as="geometry"/>
                </mxCell>
                <mxCell id="g8MGEzddEO4zyux5536V-4" value="" style="edgeStyle=orthogonalEdgeStyle;rounded=0;orthogonalLoop=1;jettySize=auto;html=1;fontSize=17;" edge="1" parent="g8MGEzddEO4zyux5536V-1" source="g8MGEzddEO4zyux5536V-5" target="g8MGEzddEO4zyux5536V-8">
                    <mxGeometry relative="1" as="geometry"/>
                </mxCell>
                <mxCell id="g8MGEzddEO4zyux5536V-5" value="称" style="rounded=1;whiteSpace=wrap;html=1;fontSize=17;" vertex="1" parent="g8MGEzddEO4zyux5536V-1">
                    <mxGeometry x="370" y="230" width="66" height="40" as="geometry"/>
                </mxCell>
                <mxCell id="g8MGEzddEO4zyux5536V-6" style="edgeStyle=orthogonalEdgeStyle;rounded=0;orthogonalLoop=1;jettySize=auto;html=1;entryX=0.5;entryY=0;entryDx=0;entryDy=0;fontSize=17;curved=1;" edge="1" parent="g8MGEzddEO4zyux5536V-1" source="g8MGEzddEO4zyux5536V-8" target="g8MGEzddEO4zyux5536V-9">
                    <mxGeometry relative="1" as="geometry"/>
                </mxCell>
                <mxCell id="g8MGEzddEO4zyux5536V-7" style="edgeStyle=orthogonalEdgeStyle;curved=1;rounded=0;orthogonalLoop=1;jettySize=auto;html=1;exitX=0.5;exitY=1;exitDx=0;exitDy=0;entryX=0.5;entryY=0;entryDx=0;entryDy=0;fontSize=17;" edge="1" parent="g8MGEzddEO4zyux5536V-1" source="g8MGEzddEO4zyux5536V-8" target="g8MGEzddEO4zyux5536V-11">
                    <mxGeometry relative="1" as="geometry"/>
                </mxCell>
                <mxCell id="g8MGEzddEO4zyux5536V-8" value="卷章" style="rounded=1;whiteSpace=wrap;html=1;fontSize=17;" vertex="1" parent="g8MGEzddEO4zyux5536V-1">
                    <mxGeometry x="370" y="310" width="66" height="40" as="geometry"/>
                </mxCell>
                <mxCell id="g8MGEzddEO4zyux5536V-9" value="重黎" style="rounded=1;whiteSpace=wrap;html=1;fontSize=17;" vertex="1" parent="g8MGEzddEO4zyux5536V-1">
                    <mxGeometry x="320" y="390" width="66" height="40" as="geometry"/>
                </mxCell>
                <mxCell id="g8MGEzddEO4zyux5536V-10" value="" style="edgeStyle=orthogonalEdgeStyle;curved=1;rounded=0;orthogonalLoop=1;jettySize=auto;html=1;fontSize=17;" edge="1" parent="g8MGEzddEO4zyux5536V-1" source="g8MGEzddEO4zyux5536V-11" target="g8MGEzddEO4zyux5536V-18">
                    <mxGeometry relative="1" as="geometry"/>
                </mxCell>
                <mxCell id="g8MGEzddEO4zyux5536V-11" value="吴回" style="rounded=1;whiteSpace=wrap;html=1;fontSize=17;" vertex="1" parent="g8MGEzddEO4zyux5536V-1">
                    <mxGeometry x="410" y="390" width="66" height="40" as="geometry"/>
                </mxCell>
                <mxCell id="g8MGEzddEO4zyux5536V-12" style="edgeStyle=orthogonalEdgeStyle;curved=1;rounded=0;orthogonalLoop=1;jettySize=auto;html=1;exitX=0.5;exitY=1;exitDx=0;exitDy=0;entryX=0.5;entryY=0;entryDx=0;entryDy=0;fontSize=17;" edge="1" parent="g8MGEzddEO4zyux5536V-1" source="g8MGEzddEO4zyux5536V-18" target="g8MGEzddEO4zyux5536V-19">
                    <mxGeometry relative="1" as="geometry"/>
                </mxCell>
                <mxCell id="g8MGEzddEO4zyux5536V-13" style="edgeStyle=orthogonalEdgeStyle;curved=1;rounded=0;orthogonalLoop=1;jettySize=auto;html=1;exitX=0.5;exitY=1;exitDx=0;exitDy=0;entryX=0.5;entryY=0;entryDx=0;entryDy=0;fontSize=17;" edge="1" parent="g8MGEzddEO4zyux5536V-1" source="g8MGEzddEO4zyux5536V-18" target="g8MGEzddEO4zyux5536V-20">
                    <mxGeometry relative="1" as="geometry"/>
                </mxCell>
                <mxCell id="g8MGEzddEO4zyux5536V-14" style="edgeStyle=orthogonalEdgeStyle;curved=1;rounded=0;orthogonalLoop=1;jettySize=auto;html=1;exitX=0.5;exitY=1;exitDx=0;exitDy=0;entryX=0.5;entryY=0;entryDx=0;entryDy=0;fontSize=17;" edge="1" parent="g8MGEzddEO4zyux5536V-1" source="g8MGEzddEO4zyux5536V-18" target="g8MGEzddEO4zyux5536V-21">
                    <mxGeometry relative="1" as="geometry"/>
                </mxCell>
                <mxCell id="g8MGEzddEO4zyux5536V-15" style="edgeStyle=orthogonalEdgeStyle;curved=1;rounded=0;orthogonalLoop=1;jettySize=auto;html=1;exitX=0.5;exitY=1;exitDx=0;exitDy=0;entryX=0.5;entryY=0;entryDx=0;entryDy=0;fontSize=17;" edge="1" parent="g8MGEzddEO4zyux5536V-1" source="g8MGEzddEO4zyux5536V-18" target="g8MGEzddEO4zyux5536V-22">
                    <mxGeometry relative="1" as="geometry"/>
                </mxCell>
                <mxCell id="g8MGEzddEO4zyux5536V-16" style="edgeStyle=orthogonalEdgeStyle;curved=1;rounded=0;orthogonalLoop=1;jettySize=auto;html=1;exitX=0.5;exitY=1;exitDx=0;exitDy=0;entryX=0.5;entryY=0;entryDx=0;entryDy=0;fontSize=17;" edge="1" parent="g8MGEzddEO4zyux5536V-1" source="g8MGEzddEO4zyux5536V-18" target="g8MGEzddEO4zyux5536V-23">
                    <mxGeometry relative="1" as="geometry"/>
                </mxCell>
                <mxCell id="g8MGEzddEO4zyux5536V-17" style="edgeStyle=orthogonalEdgeStyle;curved=1;rounded=0;orthogonalLoop=1;jettySize=auto;html=1;exitX=0.5;exitY=1;exitDx=0;exitDy=0;entryX=0.5;entryY=0;entryDx=0;entryDy=0;fontSize=17;" edge="1" parent="g8MGEzddEO4zyux5536V-1" source="g8MGEzddEO4zyux5536V-18" target="g8MGEzddEO4zyux5536V-25">
                    <mxGeometry relative="1" as="geometry"/>
                </mxCell>
                <mxCell id="g8MGEzddEO4zyux5536V-18" value="陆终" style="rounded=1;whiteSpace=wrap;html=1;fontSize=17;" vertex="1" parent="g8MGEzddEO4zyux5536V-1">
                    <mxGeometry x="410" y="460" width="66" height="40" as="geometry"/>
                </mxCell>
                <mxCell id="g8MGEzddEO4zyux5536V-19" value="昆吾" style="rounded=1;whiteSpace=wrap;html=1;fontSize=17;" vertex="1" parent="g8MGEzddEO4zyux5536V-1">
                    <mxGeometry x="180" y="565" width="66" height="40" as="geometry"/>
                </mxCell>
                <mxCell id="g8MGEzddEO4zyux5536V-20" value="参胡" style="rounded=1;whiteSpace=wrap;html=1;fontSize=17;" vertex="1" parent="g8MGEzddEO4zyux5536V-1">
                    <mxGeometry x="260" y="565" width="66" height="40" as="geometry"/>
                </mxCell>
                <mxCell id="g8MGEzddEO4zyux5536V-21" value="彭祖" style="rounded=1;whiteSpace=wrap;html=1;fontSize=17;" vertex="1" parent="g8MGEzddEO4zyux5536V-1">
                    <mxGeometry x="340" y="565" width="66" height="40" as="geometry"/>
                </mxCell>
                <mxCell id="g8MGEzddEO4zyux5536V-22" value="会人" style="rounded=1;whiteSpace=wrap;html=1;fontSize=17;" vertex="1" parent="g8MGEzddEO4zyux5536V-1">
                    <mxGeometry x="420" y="565" width="66" height="40" as="geometry"/>
                </mxCell>
                <mxCell id="g8MGEzddEO4zyux5536V-23" value="曹姓" style="rounded=1;whiteSpace=wrap;html=1;fontSize=17;" vertex="1" parent="g8MGEzddEO4zyux5536V-1">
                    <mxGeometry x="500" y="565" width="66" height="40" as="geometry"/>
                </mxCell>
                <mxCell id="g8MGEzddEO4zyux5536V-24" value="" style="edgeStyle=orthogonalEdgeStyle;curved=1;rounded=0;orthogonalLoop=1;jettySize=auto;html=1;fontSize=17;" edge="1" parent="g8MGEzddEO4zyux5536V-1" source="g8MGEzddEO4zyux5536V-25" target="g8MGEzddEO4zyux5536V-27">
                    <mxGeometry relative="1" as="geometry"/>
                </mxCell>
                <mxCell id="g8MGEzddEO4zyux5536V-25" value="季连" style="rounded=1;whiteSpace=wrap;html=1;fontSize=17;" vertex="1" parent="g8MGEzddEO4zyux5536V-1">
                    <mxGeometry x="580" y="565" width="66" height="40" as="geometry"/>
                </mxCell>
                <mxCell id="g8MGEzddEO4zyux5536V-26" value="" style="edgeStyle=orthogonalEdgeStyle;curved=1;rounded=0;orthogonalLoop=1;jettySize=auto;html=1;fontSize=17;" edge="1" parent="g8MGEzddEO4zyux5536V-1" source="g8MGEzddEO4zyux5536V-27" target="g8MGEzddEO4zyux5536V-28">
                    <mxGeometry relative="1" as="geometry"/>
                </mxCell>
                <mxCell id="g8MGEzddEO4zyux5536V-27" value="附沮" style="rounded=1;whiteSpace=wrap;html=1;fontSize=17;" vertex="1" parent="g8MGEzddEO4zyux5536V-1">
                    <mxGeometry x="580" y="630" width="66" height="40" as="geometry"/>
                </mxCell>
                <mxCell id="g8MGEzddEO4zyux5536V-28" value="穴熊" style="rounded=1;whiteSpace=wrap;html=1;fontSize=17;" vertex="1" parent="g8MGEzddEO4zyux5536V-1">
                    <mxGeometry x="580" y="690" width="66" height="40" as="geometry"/>
                </mxCell>
                <mxCell id="g8MGEzddEO4zyux5536V-29" value="..." style="text;html=1;align=center;verticalAlign=middle;resizable=0;points=[];autosize=1;strokeColor=none;fillColor=none;fontSize=17;" vertex="1" parent="g8MGEzddEO4zyux5536V-1">
                    <mxGeometry x="598" y="750" width="30" height="30" as="geometry"/>
                </mxCell>
                <mxCell id="g8MGEzddEO4zyux5536V-30" value="" style="edgeStyle=orthogonalEdgeStyle;curved=1;rounded=0;orthogonalLoop=1;jettySize=auto;html=1;fontSize=17;" edge="1" parent="g8MGEzddEO4zyux5536V-1" source="g8MGEzddEO4zyux5536V-31" target="g8MGEzddEO4zyux5536V-33">
                    <mxGeometry relative="1" as="geometry"/>
                </mxCell>
                <mxCell id="g8MGEzddEO4zyux5536V-31" value="鬻熊" style="rounded=1;whiteSpace=wrap;html=1;fontSize=17;" vertex="1" parent="g8MGEzddEO4zyux5536V-1">
                    <mxGeometry x="580" y="800" width="66" height="40" as="geometry"/>
                </mxCell>
                <mxCell id="g8MGEzddEO4zyux5536V-32" value="" style="edgeStyle=orthogonalEdgeStyle;curved=1;rounded=0;orthogonalLoop=1;jettySize=auto;html=1;fontSize=17;" edge="1" parent="g8MGEzddEO4zyux5536V-1" source="g8MGEzddEO4zyux5536V-33" target="g8MGEzddEO4zyux5536V-35">
                    <mxGeometry relative="1" as="geometry"/>
                </mxCell>
                <mxCell id="g8MGEzddEO4zyux5536V-33" value="熊丽" style="rounded=1;whiteSpace=wrap;html=1;fontSize=17;" vertex="1" parent="g8MGEzddEO4zyux5536V-1">
                    <mxGeometry x="580" y="870" width="66" height="40" as="geometry"/>
                </mxCell>
                <mxCell id="g8MGEzddEO4zyux5536V-34" value="" style="edgeStyle=orthogonalEdgeStyle;curved=1;rounded=0;orthogonalLoop=1;jettySize=auto;html=1;fontSize=17;" edge="1" parent="g8MGEzddEO4zyux5536V-1" source="g8MGEzddEO4zyux5536V-35" target="g8MGEzddEO4zyux5536V-37">
                    <mxGeometry relative="1" as="geometry"/>
                </mxCell>
                <mxCell id="g8MGEzddEO4zyux5536V-35" value="熊狂" style="rounded=1;whiteSpace=wrap;html=1;fontSize=17;" vertex="1" parent="g8MGEzddEO4zyux5536V-1">
                    <mxGeometry x="580" y="930" width="66" height="40" as="geometry"/>
                </mxCell>
                <mxCell id="g8MGEzddEO4zyux5536V-36" style="edgeStyle=orthogonalEdgeStyle;curved=1;rounded=0;orthogonalLoop=1;jettySize=auto;html=1;exitX=0.5;exitY=1;exitDx=0;exitDy=0;entryX=0.5;entryY=0;entryDx=0;entryDy=0;fontSize=17;" edge="1" parent="g8MGEzddEO4zyux5536V-1" source="g8MGEzddEO4zyux5536V-37" target="g8MGEzddEO4zyux5536V-39">
                    <mxGeometry relative="1" as="geometry"/>
                </mxCell>
                <mxCell id="g8MGEzddEO4zyux5536V-37" value="熊绎" style="rounded=1;whiteSpace=wrap;html=1;fontSize=17;" vertex="1" parent="g8MGEzddEO4zyux5536V-1">
                    <mxGeometry x="580" y="990" width="66" height="40" as="geometry"/>
                </mxCell>
                <mxCell id="g8MGEzddEO4zyux5536V-38" style="edgeStyle=orthogonalEdgeStyle;curved=1;rounded=0;orthogonalLoop=1;jettySize=auto;html=1;exitX=0.5;exitY=1;exitDx=0;exitDy=0;entryX=0.5;entryY=0;entryDx=0;entryDy=0;fontSize=17;" edge="1" parent="g8MGEzddEO4zyux5536V-1" source="g8MGEzddEO4zyux5536V-39" target="g8MGEzddEO4zyux5536V-42">
                    <mxGeometry relative="1" as="geometry"/>
                </mxCell>
                <mxCell id="g8MGEzddEO4zyux5536V-39" value="熊艾" style="rounded=1;whiteSpace=wrap;html=1;fontSize=17;" vertex="1" parent="g8MGEzddEO4zyux5536V-1">
                    <mxGeometry x="580" y="1050" width="66" height="40" as="geometry"/>
                </mxCell>
                <mxCell id="g8MGEzddEO4zyux5536V-40" style="edgeStyle=orthogonalEdgeStyle;curved=1;rounded=0;orthogonalLoop=1;jettySize=auto;html=1;exitX=0.5;exitY=1;exitDx=0;exitDy=0;entryX=0.5;entryY=0;entryDx=0;entryDy=0;fontSize=17;" edge="1" parent="g8MGEzddEO4zyux5536V-1" source="g8MGEzddEO4zyux5536V-42" target="g8MGEzddEO4zyux5536V-43">
                    <mxGeometry relative="1" as="geometry"/>
                </mxCell>
                <mxCell id="g8MGEzddEO4zyux5536V-41" style="edgeStyle=orthogonalEdgeStyle;curved=1;rounded=0;orthogonalLoop=1;jettySize=auto;html=1;exitX=0.5;exitY=1;exitDx=0;exitDy=0;entryX=0.5;entryY=0;entryDx=0;entryDy=0;fontSize=17;" edge="1" parent="g8MGEzddEO4zyux5536V-1" source="g8MGEzddEO4zyux5536V-42" target="g8MGEzddEO4zyux5536V-45">
                    <mxGeometry relative="1" as="geometry"/>
                </mxCell>
                <mxCell id="g8MGEzddEO4zyux5536V-42" value="熊&lt;span style=&quot;color: rgb(51 , 51 , 51) ; font-family: &amp;#34;pingfang sc&amp;#34; , &amp;#34;lantinghei sc&amp;#34; , &amp;#34;microsoft yahei&amp;#34; , &amp;#34;arial&amp;#34; , , sans-serif , &amp;#34;tahoma&amp;#34; ; font-size: 16px ; background-color: rgb(255 , 255 , 255)&quot;&gt;䵣&lt;/span&gt;" style="rounded=1;whiteSpace=wrap;html=1;fontSize=17;" vertex="1" parent="g8MGEzddEO4zyux5536V-1">
                    <mxGeometry x="580" y="1110" width="66" height="40" as="geometry"/>
                </mxCell>
                <mxCell id="g8MGEzddEO4zyux5536V-43" value="熊&lt;font color=&quot;#333333&quot;&gt;&lt;span style=&quot;font-size: 16px ; background-color: rgb(255 , 255 , 255)&quot;&gt;胜&lt;/span&gt;&lt;/font&gt;" style="rounded=1;whiteSpace=wrap;html=1;fontSize=17;" vertex="1" parent="g8MGEzddEO4zyux5536V-1">
                    <mxGeometry x="580" y="1210" width="66" height="40" as="geometry"/>
                </mxCell>
                <mxCell id="g8MGEzddEO4zyux5536V-44" value="" style="edgeStyle=orthogonalEdgeStyle;curved=1;rounded=0;orthogonalLoop=1;jettySize=auto;html=1;fontSize=17;" edge="1" parent="g8MGEzddEO4zyux5536V-1" source="g8MGEzddEO4zyux5536V-45" target="g8MGEzddEO4zyux5536V-50">
                    <mxGeometry relative="1" as="geometry"/>
                </mxCell>
                <mxCell id="g8MGEzddEO4zyux5536V-45" value="熊&lt;font color=&quot;#333333&quot;&gt;&lt;span style=&quot;font-size: 16px ; background-color: rgb(255 , 255 , 255)&quot;&gt;杨&lt;/span&gt;&lt;/font&gt;" style="rounded=1;whiteSpace=wrap;html=1;fontSize=17;" vertex="1" parent="g8MGEzddEO4zyux5536V-1">
                    <mxGeometry x="680" y="1210" width="66" height="40" as="geometry"/>
                </mxCell>
                <mxCell id="g8MGEzddEO4zyux5536V-46" style="edgeStyle=orthogonalEdgeStyle;curved=1;rounded=0;orthogonalLoop=1;jettySize=auto;html=1;exitX=0.5;exitY=1;exitDx=0;exitDy=0;fontSize=17;" edge="1" parent="g8MGEzddEO4zyux5536V-1" source="g8MGEzddEO4zyux5536V-50" target="g8MGEzddEO4zyux5536V-51">
                    <mxGeometry relative="1" as="geometry"/>
                </mxCell>
                <mxCell id="g8MGEzddEO4zyux5536V-47" style="edgeStyle=orthogonalEdgeStyle;curved=1;rounded=0;orthogonalLoop=1;jettySize=auto;html=1;exitX=0.5;exitY=1;exitDx=0;exitDy=0;entryX=0.5;entryY=0;entryDx=0;entryDy=0;fontSize=17;" edge="1" parent="g8MGEzddEO4zyux5536V-1" source="g8MGEzddEO4zyux5536V-50" target="g8MGEzddEO4zyux5536V-52">
                    <mxGeometry relative="1" as="geometry"/>
                </mxCell>
                <mxCell id="g8MGEzddEO4zyux5536V-48" style="edgeStyle=orthogonalEdgeStyle;curved=1;rounded=0;orthogonalLoop=1;jettySize=auto;html=1;exitX=0.5;exitY=1;exitDx=0;exitDy=0;fontSize=17;" edge="1" parent="g8MGEzddEO4zyux5536V-1" source="g8MGEzddEO4zyux5536V-50" target="g8MGEzddEO4zyux5536V-53">
                    <mxGeometry relative="1" as="geometry"/>
                </mxCell>
                <mxCell id="g8MGEzddEO4zyux5536V-49" style="edgeStyle=orthogonalEdgeStyle;curved=1;rounded=0;orthogonalLoop=1;jettySize=auto;html=1;exitX=0.5;exitY=1;exitDx=0;exitDy=0;fontSize=17;" edge="1" parent="g8MGEzddEO4zyux5536V-1" source="g8MGEzddEO4zyux5536V-50" target="g8MGEzddEO4zyux5536V-56">
                    <mxGeometry relative="1" as="geometry"/>
                </mxCell>
                <mxCell id="g8MGEzddEO4zyux5536V-50" value="熊&lt;font color=&quot;#333333&quot;&gt;&lt;span style=&quot;font-size: 16px ; background-color: rgb(255 , 255 , 255)&quot;&gt;渠&lt;/span&gt;&lt;/font&gt;" style="rounded=1;whiteSpace=wrap;html=1;fontSize=17;" vertex="1" parent="g8MGEzddEO4zyux5536V-1">
                    <mxGeometry x="680" y="1290" width="66" height="40" as="geometry"/>
                </mxCell>
                <mxCell id="g8MGEzddEO4zyux5536V-51" value="熊毋康" style="rounded=1;whiteSpace=wrap;html=1;fontSize=17;" vertex="1" parent="g8MGEzddEO4zyux5536V-1">
                    <mxGeometry x="460" y="1380" width="66" height="40" as="geometry"/>
                </mxCell>
                <mxCell id="g8MGEzddEO4zyux5536V-52" value="熊挚红" style="rounded=1;whiteSpace=wrap;html=1;fontSize=17;" vertex="1" parent="g8MGEzddEO4zyux5536V-1">
                    <mxGeometry x="562" y="1380" width="66" height="40" as="geometry"/>
                </mxCell>
                <mxCell id="g8MGEzddEO4zyux5536V-53" value="执疵" style="rounded=1;whiteSpace=wrap;html=1;fontSize=17;" vertex="1" parent="g8MGEzddEO4zyux5536V-1">
                    <mxGeometry x="760" y="1380" width="66" height="40" as="geometry"/>
                </mxCell>
                <mxCell id="g8MGEzddEO4zyux5536V-54" value="" style="edgeStyle=orthogonalEdgeStyle;curved=1;rounded=0;orthogonalLoop=1;jettySize=auto;html=1;fontSize=17;" edge="1" parent="g8MGEzddEO4zyux5536V-1" source="g8MGEzddEO4zyux5536V-56" target="g8MGEzddEO4zyux5536V-57">
                    <mxGeometry relative="1" as="geometry"/>
                </mxCell>
                <mxCell id="g8MGEzddEO4zyux5536V-55" style="edgeStyle=orthogonalEdgeStyle;curved=1;rounded=0;orthogonalLoop=1;jettySize=auto;html=1;exitX=0.5;exitY=1;exitDx=0;exitDy=0;entryX=0.5;entryY=0;entryDx=0;entryDy=0;fontSize=17;" edge="1" parent="g8MGEzddEO4zyux5536V-1" source="g8MGEzddEO4zyux5536V-56" target="g8MGEzddEO4zyux5536V-62">
                    <mxGeometry relative="1" as="geometry"/>
                </mxCell>
                <mxCell id="g8MGEzddEO4zyux5536V-56" value="熊延" style="rounded=1;whiteSpace=wrap;html=1;fontSize=17;fillColor=#FF3333;" vertex="1" parent="g8MGEzddEO4zyux5536V-1">
                    <mxGeometry x="660" y="1380" width="66" height="40" as="geometry"/>
                </mxCell>
                <mxCell id="g8MGEzddEO4zyux5536V-57" value="熊勇" style="rounded=1;whiteSpace=wrap;html=1;fontSize=17;" vertex="1" parent="g8MGEzddEO4zyux5536V-1">
                    <mxGeometry x="628" y="1460" width="66" height="40" as="geometry"/>
                </mxCell>
                <mxCell id="g8MGEzddEO4zyux5536V-58" style="edgeStyle=orthogonalEdgeStyle;curved=1;rounded=0;orthogonalLoop=1;jettySize=auto;html=1;exitX=0.5;exitY=1;exitDx=0;exitDy=0;entryX=0.5;entryY=0;entryDx=0;entryDy=0;fontSize=17;" edge="1" parent="g8MGEzddEO4zyux5536V-1" source="g8MGEzddEO4zyux5536V-62" target="g8MGEzddEO4zyux5536V-63">
                    <mxGeometry relative="1" as="geometry"/>
                </mxCell>
                <mxCell id="g8MGEzddEO4zyux5536V-59" style="edgeStyle=orthogonalEdgeStyle;curved=1;rounded=0;orthogonalLoop=1;jettySize=auto;html=1;exitX=0.5;exitY=1;exitDx=0;exitDy=0;fontSize=17;" edge="1" parent="g8MGEzddEO4zyux5536V-1" source="g8MGEzddEO4zyux5536V-62" target="g8MGEzddEO4zyux5536V-64">
                    <mxGeometry relative="1" as="geometry"/>
                </mxCell>
                <mxCell id="g8MGEzddEO4zyux5536V-60" style="edgeStyle=orthogonalEdgeStyle;curved=1;rounded=0;orthogonalLoop=1;jettySize=auto;html=1;exitX=0.5;exitY=1;exitDx=0;exitDy=0;fontSize=17;" edge="1" parent="g8MGEzddEO4zyux5536V-1" source="g8MGEzddEO4zyux5536V-62" target="g8MGEzddEO4zyux5536V-65">
                    <mxGeometry relative="1" as="geometry"/>
                </mxCell>
                <mxCell id="g8MGEzddEO4zyux5536V-61" style="edgeStyle=orthogonalEdgeStyle;curved=1;rounded=0;orthogonalLoop=1;jettySize=auto;html=1;exitX=0.5;exitY=1;exitDx=0;exitDy=0;entryX=0.5;entryY=0;entryDx=0;entryDy=0;fontSize=17;" edge="1" parent="g8MGEzddEO4zyux5536V-1" source="g8MGEzddEO4zyux5536V-62" target="g8MGEzddEO4zyux5536V-67">
                    <mxGeometry relative="1" as="geometry"/>
                </mxCell>
                <mxCell id="g8MGEzddEO4zyux5536V-62" value="熊严" style="rounded=1;whiteSpace=wrap;html=1;fontSize=17;" vertex="1" parent="g8MGEzddEO4zyux5536V-1">
                    <mxGeometry x="710" y="1460" width="66" height="40" as="geometry"/>
                </mxCell>
                <mxCell id="g8MGEzddEO4zyux5536V-63" value="熊(伯)霜" style="rounded=1;whiteSpace=wrap;html=1;fontSize=17;" vertex="1" parent="g8MGEzddEO4zyux5536V-1">
                    <mxGeometry x="560" y="1560" width="66" height="40" as="geometry"/>
                </mxCell>
                <mxCell id="g8MGEzddEO4zyux5536V-64" value="仲雪" style="rounded=1;whiteSpace=wrap;html=1;fontSize=17;" vertex="1" parent="g8MGEzddEO4zyux5536V-1">
                    <mxGeometry x="640" y="1560" width="66" height="40" as="geometry"/>
                </mxCell>
                <mxCell id="g8MGEzddEO4zyux5536V-65" value="叔堪" style="rounded=1;whiteSpace=wrap;html=1;fontSize=17;" vertex="1" parent="g8MGEzddEO4zyux5536V-1">
                    <mxGeometry x="720" y="1560" width="66" height="40" as="geometry"/>
                </mxCell>
                <mxCell id="g8MGEzddEO4zyux5536V-66" value="" style="edgeStyle=orthogonalEdgeStyle;curved=1;rounded=0;orthogonalLoop=1;jettySize=auto;html=1;fontSize=17;" edge="1" parent="g8MGEzddEO4zyux5536V-1" source="g8MGEzddEO4zyux5536V-67" target="g8MGEzddEO4zyux5536V-69">
                    <mxGeometry relative="1" as="geometry"/>
                </mxCell>
                <mxCell id="g8MGEzddEO4zyux5536V-67" value="熊(季)徇" style="rounded=1;whiteSpace=wrap;html=1;fontSize=17;" vertex="1" parent="g8MGEzddEO4zyux5536V-1">
                    <mxGeometry x="810" y="1560" width="66" height="40" as="geometry"/>
                </mxCell>
                <mxCell id="g8MGEzddEO4zyux5536V-68" style="edgeStyle=orthogonalEdgeStyle;curved=1;rounded=0;orthogonalLoop=1;jettySize=auto;html=1;exitX=0.5;exitY=1;exitDx=0;exitDy=0;fontSize=17;" edge="1" parent="g8MGEzddEO4zyux5536V-1" source="g8MGEzddEO4zyux5536V-69" target="g8MGEzddEO4zyux5536V-71">
                    <mxGeometry relative="1" as="geometry"/>
                </mxCell>
                <mxCell id="g8MGEzddEO4zyux5536V-69" value="熊咢" style="rounded=1;whiteSpace=wrap;html=1;fontSize=17;" vertex="1" parent="g8MGEzddEO4zyux5536V-1">
                    <mxGeometry x="810" y="1620" width="66" height="40" as="geometry"/>
                </mxCell>
                <mxCell id="g8MGEzddEO4zyux5536V-70" style="edgeStyle=orthogonalEdgeStyle;curved=1;rounded=0;orthogonalLoop=1;jettySize=auto;html=1;exitX=0.5;exitY=1;exitDx=0;exitDy=0;entryX=0.5;entryY=0;entryDx=0;entryDy=0;fontSize=17;" edge="1" parent="g8MGEzddEO4zyux5536V-1" source="g8MGEzddEO4zyux5536V-71" target="g8MGEzddEO4zyux5536V-75">
                    <mxGeometry relative="1" as="geometry"/>
                </mxCell>
                <mxCell id="g8MGEzddEO4zyux5536V-71" value="熊仪" style="rounded=1;whiteSpace=wrap;html=1;fontSize=17;" vertex="1" parent="g8MGEzddEO4zyux5536V-1">
                    <mxGeometry x="810" y="1690" width="66" height="40" as="geometry"/>
                </mxCell>
                <mxCell id="g8MGEzddEO4zyux5536V-72" value="若敖" style="text;html=1;align=center;verticalAlign=middle;resizable=0;points=[];autosize=1;strokeColor=none;fillColor=none;fontSize=17;" vertex="1" parent="g8MGEzddEO4zyux5536V-1">
                    <mxGeometry x="880" y="1695" width="50" height="30" as="geometry"/>
                </mxCell>
                <mxCell id="g8MGEzddEO4zyux5536V-73" style="edgeStyle=orthogonalEdgeStyle;curved=1;rounded=0;orthogonalLoop=1;jettySize=auto;html=1;exitX=0.5;exitY=1;exitDx=0;exitDy=0;fontSize=17;" edge="1" parent="g8MGEzddEO4zyux5536V-1" source="g8MGEzddEO4zyux5536V-75" target="g8MGEzddEO4zyux5536V-77">
                    <mxGeometry relative="1" as="geometry"/>
                </mxCell>
                <mxCell id="g8MGEzddEO4zyux5536V-74" style="edgeStyle=orthogonalEdgeStyle;curved=1;rounded=0;orthogonalLoop=1;jettySize=auto;html=1;exitX=0.5;exitY=1;exitDx=0;exitDy=0;fontSize=17;" edge="1" parent="g8MGEzddEO4zyux5536V-1" source="g8MGEzddEO4zyux5536V-75" target="g8MGEzddEO4zyux5536V-80">
                    <mxGeometry relative="1" as="geometry"/>
                </mxCell>
                <mxCell id="g8MGEzddEO4zyux5536V-75" value="熊坎" style="rounded=1;whiteSpace=wrap;html=1;fontSize=17;" vertex="1" parent="g8MGEzddEO4zyux5536V-1">
                    <mxGeometry x="810" y="1760" width="66" height="40" as="geometry"/>
                </mxCell>
                <mxCell id="g8MGEzddEO4zyux5536V-76" value="霄敖" style="text;html=1;align=center;verticalAlign=middle;resizable=0;points=[];autosize=1;strokeColor=none;fillColor=none;fontSize=17;" vertex="1" parent="g8MGEzddEO4zyux5536V-1">
                    <mxGeometry x="880" y="1770" width="50" height="30" as="geometry"/>
                </mxCell>
                <mxCell id="g8MGEzddEO4zyux5536V-77" value="熊眴" style="rounded=1;whiteSpace=wrap;html=1;fontSize=17;" vertex="1" parent="g8MGEzddEO4zyux5536V-1">
                    <mxGeometry x="693" y="1850" width="66" height="40" as="geometry"/>
                </mxCell>
                <mxCell id="g8MGEzddEO4zyux5536V-78" value="蚡冒" style="text;html=1;align=center;verticalAlign=middle;resizable=0;points=[];autosize=1;strokeColor=none;fillColor=none;fontSize=17;" vertex="1" parent="g8MGEzddEO4zyux5536V-1">
                    <mxGeometry x="763" y="1860" width="50" height="30" as="geometry"/>
                </mxCell>
                <mxCell id="g8MGEzddEO4zyux5536V-79" style="edgeStyle=orthogonalEdgeStyle;curved=1;rounded=0;orthogonalLoop=1;jettySize=auto;html=1;exitX=0.5;exitY=1;exitDx=0;exitDy=0;fontSize=17;" edge="1" parent="g8MGEzddEO4zyux5536V-1" source="g8MGEzddEO4zyux5536V-80" target="g8MGEzddEO4zyux5536V-84">
                    <mxGeometry relative="1" as="geometry"/>
                </mxCell>
                <mxCell id="g8MGEzddEO4zyux5536V-80" value="熊通" style="rounded=1;whiteSpace=wrap;html=1;fontSize=17;" vertex="1" parent="g8MGEzddEO4zyux5536V-1">
                    <mxGeometry x="850" y="1850" width="66" height="40" as="geometry"/>
                </mxCell>
                <mxCell id="g8MGEzddEO4zyux5536V-81" value="武王" style="text;html=1;align=center;verticalAlign=middle;resizable=0;points=[];autosize=1;strokeColor=none;fillColor=none;fontSize=17;" vertex="1" parent="g8MGEzddEO4zyux5536V-1">
                    <mxGeometry x="916" y="1855" width="50" height="30" as="geometry"/>
                </mxCell>
                <mxCell id="g8MGEzddEO4zyux5536V-82" style="edgeStyle=orthogonalEdgeStyle;curved=1;rounded=0;orthogonalLoop=1;jettySize=auto;html=1;exitX=0.5;exitY=1;exitDx=0;exitDy=0;fontSize=17;" edge="1" parent="g8MGEzddEO4zyux5536V-1" source="g8MGEzddEO4zyux5536V-84" target="g8MGEzddEO4zyux5536V-86">
                    <mxGeometry relative="1" as="geometry"/>
                </mxCell>
                <mxCell id="g8MGEzddEO4zyux5536V-83" style="edgeStyle=orthogonalEdgeStyle;curved=1;rounded=0;orthogonalLoop=1;jettySize=auto;html=1;exitX=0.5;exitY=1;exitDx=0;exitDy=0;entryX=0.5;entryY=0;entryDx=0;entryDy=0;fontSize=17;" edge="1" parent="g8MGEzddEO4zyux5536V-1" source="g8MGEzddEO4zyux5536V-84" target="g8MGEzddEO4zyux5536V-90">
                    <mxGeometry relative="1" as="geometry"/>
                </mxCell>
                <mxCell id="g8MGEzddEO4zyux5536V-84" value="熊赀" style="rounded=1;whiteSpace=wrap;html=1;fontSize=17;" vertex="1" parent="g8MGEzddEO4zyux5536V-1">
                    <mxGeometry x="850" y="1930" width="66" height="40" as="geometry"/>
                </mxCell>
                <mxCell id="g8MGEzddEO4zyux5536V-85" value="文王" style="text;html=1;align=center;verticalAlign=middle;resizable=0;points=[];autosize=1;strokeColor=none;fillColor=none;fontSize=17;" vertex="1" parent="g8MGEzddEO4zyux5536V-1">
                    <mxGeometry x="916" y="1940" width="50" height="30" as="geometry"/>
                </mxCell>
                <mxCell id="g8MGEzddEO4zyux5536V-86" value="熊囏" style="rounded=1;whiteSpace=wrap;html=1;fontSize=17;" vertex="1" parent="g8MGEzddEO4zyux5536V-1">
                    <mxGeometry x="726" y="2020" width="66" height="40" as="geometry"/>
                </mxCell>
                <mxCell id="g8MGEzddEO4zyux5536V-87" value="庄敖" style="text;html=1;align=center;verticalAlign=middle;resizable=0;points=[];autosize=1;strokeColor=none;fillColor=none;fontSize=17;" vertex="1" parent="g8MGEzddEO4zyux5536V-1">
                    <mxGeometry x="792" y="2030" width="50" height="30" as="geometry"/>
                </mxCell>
                <mxCell id="g8MGEzddEO4zyux5536V-88" style="edgeStyle=orthogonalEdgeStyle;curved=1;rounded=0;orthogonalLoop=1;jettySize=auto;html=1;exitX=0.5;exitY=1;exitDx=0;exitDy=0;fontSize=17;" edge="1" parent="g8MGEzddEO4zyux5536V-1" source="g8MGEzddEO4zyux5536V-90" target="g8MGEzddEO4zyux5536V-93">
                    <mxGeometry relative="1" as="geometry"/>
                </mxCell>
                <mxCell id="g8MGEzddEO4zyux5536V-89" style="edgeStyle=orthogonalEdgeStyle;curved=1;rounded=0;orthogonalLoop=1;jettySize=auto;html=1;exitX=0.5;exitY=1;exitDx=0;exitDy=0;entryX=0.5;entryY=0;entryDx=0;entryDy=0;fontSize=17;" edge="1" parent="g8MGEzddEO4zyux5536V-1" source="g8MGEzddEO4zyux5536V-90" target="g8MGEzddEO4zyux5536V-94">
                    <mxGeometry relative="1" as="geometry"/>
                </mxCell>
                <mxCell id="g8MGEzddEO4zyux5536V-90" value="熊恽" style="rounded=1;whiteSpace=wrap;html=1;fontSize=17;" vertex="1" parent="g8MGEzddEO4zyux5536V-1">
                    <mxGeometry x="876" y="2020" width="66" height="40" as="geometry"/>
                </mxCell>
                <mxCell id="g8MGEzddEO4zyux5536V-91" value="成王" style="text;html=1;align=center;verticalAlign=middle;resizable=0;points=[];autosize=1;strokeColor=none;fillColor=none;fontSize=17;" vertex="1" parent="g8MGEzddEO4zyux5536V-1">
                    <mxGeometry x="942" y="2030" width="50" height="30" as="geometry"/>
                </mxCell>
                <mxCell id="g8MGEzddEO4zyux5536V-92" style="edgeStyle=orthogonalEdgeStyle;curved=1;rounded=0;orthogonalLoop=1;jettySize=auto;html=1;exitX=0.5;exitY=1;exitDx=0;exitDy=0;entryX=0.5;entryY=0;entryDx=0;entryDy=0;fontSize=17;" edge="1" parent="g8MGEzddEO4zyux5536V-1" source="g8MGEzddEO4zyux5536V-93" target="g8MGEzddEO4zyux5536V-97">
                    <mxGeometry relative="1" as="geometry"/>
                </mxCell>
                <mxCell id="g8MGEzddEO4zyux5536V-93" value="商臣" style="rounded=1;whiteSpace=wrap;html=1;fontSize=17;" vertex="1" parent="g8MGEzddEO4zyux5536V-1">
                    <mxGeometry x="842" y="2120" width="66" height="40" as="geometry"/>
                </mxCell>
                <mxCell id="g8MGEzddEO4zyux5536V-94" value="职" style="rounded=1;whiteSpace=wrap;html=1;fontSize=17;" vertex="1" parent="g8MGEzddEO4zyux5536V-1">
                    <mxGeometry x="966" y="2120" width="66" height="40" as="geometry"/>
                </mxCell>
                <mxCell id="g8MGEzddEO4zyux5536V-95" value="穆王" style="text;html=1;align=center;verticalAlign=middle;resizable=0;points=[];autosize=1;strokeColor=none;fillColor=none;fontSize=17;" vertex="1" parent="g8MGEzddEO4zyux5536V-1">
                    <mxGeometry x="906" y="2125" width="50" height="30" as="geometry"/>
                </mxCell>
                <mxCell id="g8MGEzddEO4zyux5536V-96" style="edgeStyle=orthogonalEdgeStyle;curved=1;rounded=0;orthogonalLoop=1;jettySize=auto;html=1;exitX=0.5;exitY=1;exitDx=0;exitDy=0;entryX=0.5;entryY=0;entryDx=0;entryDy=0;fontSize=17;" edge="1" parent="g8MGEzddEO4zyux5536V-1" source="g8MGEzddEO4zyux5536V-97" target="g8MGEzddEO4zyux5536V-105">
                    <mxGeometry relative="1" as="geometry"/>
                </mxCell>
                <mxCell id="g8MGEzddEO4zyux5536V-97" value="侣" style="rounded=1;whiteSpace=wrap;html=1;fontSize=17;" vertex="1" parent="g8MGEzddEO4zyux5536V-1">
                    <mxGeometry x="842" y="2190" width="66" height="40" as="geometry"/>
                </mxCell>
                <mxCell id="g8MGEzddEO4zyux5536V-98" value="庄王" style="text;html=1;align=center;verticalAlign=middle;resizable=0;points=[];autosize=1;strokeColor=none;fillColor=none;fontSize=17;" vertex="1" parent="g8MGEzddEO4zyux5536V-1">
                    <mxGeometry x="906" y="2195" width="50" height="30" as="geometry"/>
                </mxCell>
                <mxCell id="g8MGEzddEO4zyux5536V-99" style="edgeStyle=orthogonalEdgeStyle;curved=1;rounded=0;orthogonalLoop=1;jettySize=auto;html=1;exitX=0.5;exitY=1;exitDx=0;exitDy=0;entryX=0.5;entryY=0;entryDx=0;entryDy=0;fontSize=17;" edge="1" parent="g8MGEzddEO4zyux5536V-1" source="g8MGEzddEO4zyux5536V-105" target="g8MGEzddEO4zyux5536V-108">
                    <mxGeometry relative="1" as="geometry"/>
                </mxCell>
                <mxCell id="g8MGEzddEO4zyux5536V-100" style="edgeStyle=orthogonalEdgeStyle;curved=1;rounded=0;orthogonalLoop=1;jettySize=auto;html=1;exitX=0.5;exitY=1;exitDx=0;exitDy=0;fontSize=17;" edge="1" parent="g8MGEzddEO4zyux5536V-1" source="g8MGEzddEO4zyux5536V-105" target="g8MGEzddEO4zyux5536V-115">
                    <mxGeometry relative="1" as="geometry"/>
                </mxCell>
                <mxCell id="g8MGEzddEO4zyux5536V-101" style="edgeStyle=orthogonalEdgeStyle;curved=1;rounded=0;orthogonalLoop=1;jettySize=auto;html=1;exitX=0.5;exitY=1;exitDx=0;exitDy=0;fontSize=17;" edge="1" parent="g8MGEzddEO4zyux5536V-1" source="g8MGEzddEO4zyux5536V-105" target="g8MGEzddEO4zyux5536V-116">
                    <mxGeometry relative="1" as="geometry"/>
                </mxCell>
                <mxCell id="g8MGEzddEO4zyux5536V-102" style="edgeStyle=orthogonalEdgeStyle;curved=1;rounded=0;orthogonalLoop=1;jettySize=auto;html=1;exitX=0.5;exitY=1;exitDx=0;exitDy=0;fontSize=17;" edge="1" parent="g8MGEzddEO4zyux5536V-1" source="g8MGEzddEO4zyux5536V-105" target="g8MGEzddEO4zyux5536V-117">
                    <mxGeometry relative="1" as="geometry"/>
                </mxCell>
                <mxCell id="g8MGEzddEO4zyux5536V-103" style="edgeStyle=orthogonalEdgeStyle;curved=1;rounded=0;orthogonalLoop=1;jettySize=auto;html=1;exitX=0.5;exitY=1;exitDx=0;exitDy=0;fontSize=17;" edge="1" parent="g8MGEzddEO4zyux5536V-1" source="g8MGEzddEO4zyux5536V-105" target="g8MGEzddEO4zyux5536V-123">
                    <mxGeometry relative="1" as="geometry"/>
                </mxCell>
                <mxCell id="g8MGEzddEO4zyux5536V-104" style="edgeStyle=orthogonalEdgeStyle;curved=1;rounded=0;orthogonalLoop=1;jettySize=auto;html=1;exitX=0.5;exitY=1;exitDx=0;exitDy=0;fontSize=17;" edge="1" parent="g8MGEzddEO4zyux5536V-1" source="g8MGEzddEO4zyux5536V-105" target="g8MGEzddEO4zyux5536V-137">
                    <mxGeometry relative="1" as="geometry"/>
                </mxCell>
                <mxCell id="g8MGEzddEO4zyux5536V-105" value="审" style="rounded=1;whiteSpace=wrap;html=1;fontSize=17;" vertex="1" parent="g8MGEzddEO4zyux5536V-1">
                    <mxGeometry x="842" y="2270" width="66" height="40" as="geometry"/>
                </mxCell>
                <mxCell id="g8MGEzddEO4zyux5536V-106" value="共王" style="text;html=1;align=center;verticalAlign=middle;resizable=0;points=[];autosize=1;strokeColor=none;fillColor=none;fontSize=17;" vertex="1" parent="g8MGEzddEO4zyux5536V-1">
                    <mxGeometry x="906" y="2275" width="50" height="30" as="geometry"/>
                </mxCell>
                <mxCell id="g8MGEzddEO4zyux5536V-107" style="edgeStyle=orthogonalEdgeStyle;curved=1;rounded=0;orthogonalLoop=1;jettySize=auto;html=1;exitX=0.5;exitY=1;exitDx=0;exitDy=0;entryX=0.5;entryY=0;entryDx=0;entryDy=0;fontSize=17;" edge="1" parent="g8MGEzddEO4zyux5536V-1" source="g8MGEzddEO4zyux5536V-108" target="g8MGEzddEO4zyux5536V-112">
                    <mxGeometry relative="1" as="geometry"/>
                </mxCell>
                <mxCell id="g8MGEzddEO4zyux5536V-108" value="招" style="rounded=1;whiteSpace=wrap;html=1;fontSize=17;" vertex="1" parent="g8MGEzddEO4zyux5536V-1">
                    <mxGeometry x="616" y="2370" width="66" height="40" as="geometry"/>
                </mxCell>
                <mxCell id="g8MGEzddEO4zyux5536V-109" value="康王" style="text;html=1;align=center;verticalAlign=middle;resizable=0;points=[];autosize=1;strokeColor=none;fillColor=none;fontSize=17;" vertex="1" parent="g8MGEzddEO4zyux5536V-1">
                    <mxGeometry x="680" y="2375" width="50" height="30" as="geometry"/>
                </mxCell>
                <mxCell id="g8MGEzddEO4zyux5536V-110" style="edgeStyle=orthogonalEdgeStyle;curved=1;rounded=0;orthogonalLoop=1;jettySize=auto;html=1;exitX=0.5;exitY=1;exitDx=0;exitDy=0;entryX=0.5;entryY=0;entryDx=0;entryDy=0;fontSize=17;" edge="1" parent="g8MGEzddEO4zyux5536V-1" source="g8MGEzddEO4zyux5536V-112" target="g8MGEzddEO4zyux5536V-124">
                    <mxGeometry relative="1" as="geometry"/>
                </mxCell>
                <mxCell id="g8MGEzddEO4zyux5536V-111" style="edgeStyle=orthogonalEdgeStyle;curved=1;rounded=0;orthogonalLoop=1;jettySize=auto;html=1;exitX=0.5;exitY=1;exitDx=0;exitDy=0;entryX=0.5;entryY=0;entryDx=0;entryDy=0;fontSize=17;" edge="1" parent="g8MGEzddEO4zyux5536V-1" source="g8MGEzddEO4zyux5536V-112" target="g8MGEzddEO4zyux5536V-125">
                    <mxGeometry relative="1" as="geometry"/>
                </mxCell>
                <mxCell id="g8MGEzddEO4zyux5536V-112" value="员" style="rounded=1;whiteSpace=wrap;html=1;fontSize=17;" vertex="1" parent="g8MGEzddEO4zyux5536V-1">
                    <mxGeometry x="616" y="2450" width="66" height="40" as="geometry"/>
                </mxCell>
                <mxCell id="g8MGEzddEO4zyux5536V-113" value="郏敖" style="text;html=1;align=center;verticalAlign=middle;resizable=0;points=[];autosize=1;strokeColor=none;fillColor=none;fontSize=17;" vertex="1" parent="g8MGEzddEO4zyux5536V-1">
                    <mxGeometry x="680" y="2455" width="50" height="30" as="geometry"/>
                </mxCell>
                <mxCell id="g8MGEzddEO4zyux5536V-114" style="edgeStyle=orthogonalEdgeStyle;curved=1;rounded=0;orthogonalLoop=1;jettySize=auto;html=1;exitX=0.5;exitY=1;exitDx=0;exitDy=0;entryX=0.5;entryY=0;entryDx=0;entryDy=0;fontSize=17;" edge="1" parent="g8MGEzddEO4zyux5536V-1" source="g8MGEzddEO4zyux5536V-115" target="g8MGEzddEO4zyux5536V-127">
                    <mxGeometry relative="1" as="geometry"/>
                </mxCell>
                <mxCell id="g8MGEzddEO4zyux5536V-115" value="围" style="rounded=1;whiteSpace=wrap;html=1;fontSize=17;" vertex="1" parent="g8MGEzddEO4zyux5536V-1">
                    <mxGeometry x="735.5" y="2370" width="66" height="40" as="geometry"/>
                </mxCell>
                <mxCell id="g8MGEzddEO4zyux5536V-116" value="比" style="rounded=1;whiteSpace=wrap;html=1;fontSize=17;" vertex="1" parent="g8MGEzddEO4zyux5536V-1">
                    <mxGeometry x="850.5" y="2370" width="66" height="40" as="geometry"/>
                </mxCell>
                <mxCell id="g8MGEzddEO4zyux5536V-117" value="皙" style="rounded=1;whiteSpace=wrap;html=1;fontSize=17;" vertex="1" parent="g8MGEzddEO4zyux5536V-1">
                    <mxGeometry x="930" y="2370" width="66" height="40" as="geometry"/>
                </mxCell>
                <mxCell id="g8MGEzddEO4zyux5536V-118" style="edgeStyle=orthogonalEdgeStyle;curved=1;rounded=0;orthogonalLoop=1;jettySize=auto;html=1;exitX=0.5;exitY=1;exitDx=0;exitDy=0;entryX=0.5;entryY=0;entryDx=0;entryDy=0;fontSize=17;" edge="1" parent="g8MGEzddEO4zyux5536V-1" source="g8MGEzddEO4zyux5536V-123" target="g8MGEzddEO4zyux5536V-131">
                    <mxGeometry relative="1" as="geometry"/>
                </mxCell>
                <mxCell id="g8MGEzddEO4zyux5536V-119" style="edgeStyle=orthogonalEdgeStyle;curved=1;rounded=0;orthogonalLoop=1;jettySize=auto;html=1;exitX=0.5;exitY=1;exitDx=0;exitDy=0;fontSize=17;" edge="1" parent="g8MGEzddEO4zyux5536V-1" source="g8MGEzddEO4zyux5536V-123" target="g8MGEzddEO4zyux5536V-133">
                    <mxGeometry relative="1" as="geometry"/>
                </mxCell>
                <mxCell id="g8MGEzddEO4zyux5536V-120" style="edgeStyle=orthogonalEdgeStyle;curved=1;rounded=0;orthogonalLoop=1;jettySize=auto;html=1;exitX=0.5;exitY=1;exitDx=0;exitDy=0;entryX=0.5;entryY=0;entryDx=0;entryDy=0;fontSize=17;" edge="1" parent="g8MGEzddEO4zyux5536V-1" source="g8MGEzddEO4zyux5536V-123" target="g8MGEzddEO4zyux5536V-138">
                    <mxGeometry relative="1" as="geometry"/>
                </mxCell>
                <mxCell id="g8MGEzddEO4zyux5536V-121" style="edgeStyle=orthogonalEdgeStyle;curved=1;rounded=0;orthogonalLoop=1;jettySize=auto;html=1;exitX=0.5;exitY=1;exitDx=0;exitDy=0;fontSize=17;" edge="1" parent="g8MGEzddEO4zyux5536V-1" source="g8MGEzddEO4zyux5536V-123" target="g8MGEzddEO4zyux5536V-139">
                    <mxGeometry relative="1" as="geometry"/>
                </mxCell>
                <mxCell id="g8MGEzddEO4zyux5536V-122" style="edgeStyle=orthogonalEdgeStyle;curved=1;rounded=0;orthogonalLoop=1;jettySize=auto;html=1;exitX=0.5;exitY=1;exitDx=0;exitDy=0;entryX=0.5;entryY=0;entryDx=0;entryDy=0;fontSize=17;" edge="1" parent="g8MGEzddEO4zyux5536V-1" source="g8MGEzddEO4zyux5536V-123" target="g8MGEzddEO4zyux5536V-140">
                    <mxGeometry relative="1" as="geometry"/>
                </mxCell>
                <mxCell id="g8MGEzddEO4zyux5536V-123" value="弃疾" style="rounded=1;whiteSpace=wrap;html=1;fontSize=17;" vertex="1" parent="g8MGEzddEO4zyux5536V-1">
                    <mxGeometry x="1010" y="2370" width="66" height="40" as="geometry"/>
                </mxCell>
                <mxCell id="g8MGEzddEO4zyux5536V-124" value="莫" style="rounded=1;whiteSpace=wrap;html=1;fontSize=17;" vertex="1" parent="g8MGEzddEO4zyux5536V-1">
                    <mxGeometry x="578.5" y="2530" width="66" height="40" as="geometry"/>
                </mxCell>
                <mxCell id="g8MGEzddEO4zyux5536V-125" value="平夏" style="rounded=1;whiteSpace=wrap;html=1;fontSize=17;" vertex="1" parent="g8MGEzddEO4zyux5536V-1">
                    <mxGeometry x="653.5" y="2530" width="66" height="40" as="geometry"/>
                </mxCell>
                <mxCell id="g8MGEzddEO4zyux5536V-126" value="灵王" style="text;html=1;align=center;verticalAlign=middle;resizable=0;points=[];autosize=1;strokeColor=none;fillColor=none;fontSize=17;" vertex="1" parent="g8MGEzddEO4zyux5536V-1">
                    <mxGeometry x="800.5" y="2375" width="50" height="30" as="geometry"/>
                </mxCell>
                <mxCell id="g8MGEzddEO4zyux5536V-127" value="禄" style="rounded=1;whiteSpace=wrap;html=1;fontSize=17;" vertex="1" parent="g8MGEzddEO4zyux5536V-1">
                    <mxGeometry x="735.5" y="2450" width="66" height="40" as="geometry"/>
                </mxCell>
                <mxCell id="g8MGEzddEO4zyux5536V-128" value="熊居" style="text;html=1;align=center;verticalAlign=middle;resizable=0;points=[];autosize=1;strokeColor=none;fillColor=none;fontSize=17;" vertex="1" parent="g8MGEzddEO4zyux5536V-1">
                    <mxGeometry x="1076" y="2370" width="50" height="30" as="geometry"/>
                </mxCell>
                <mxCell id="g8MGEzddEO4zyux5536V-129" value="平王" style="text;html=1;align=center;verticalAlign=middle;resizable=0;points=[];autosize=1;strokeColor=none;fillColor=none;fontSize=17;" vertex="1" parent="g8MGEzddEO4zyux5536V-1">
                    <mxGeometry x="1076" y="2394" width="50" height="30" as="geometry"/>
                </mxCell>
                <mxCell id="g8MGEzddEO4zyux5536V-130" style="edgeStyle=orthogonalEdgeStyle;curved=1;rounded=0;orthogonalLoop=1;jettySize=auto;html=1;exitX=0.5;exitY=1;exitDx=0;exitDy=0;entryX=0.5;entryY=0;entryDx=0;entryDy=0;fontSize=17;" edge="1" parent="g8MGEzddEO4zyux5536V-1" source="g8MGEzddEO4zyux5536V-131" target="g8MGEzddEO4zyux5536V-145">
                    <mxGeometry relative="1" as="geometry"/>
                </mxCell>
                <mxCell id="g8MGEzddEO4zyux5536V-131" value="建" style="rounded=1;whiteSpace=wrap;html=1;fontSize=17;" vertex="1" parent="g8MGEzddEO4zyux5536V-1">
                    <mxGeometry x="956" y="2455" width="66" height="40" as="geometry"/>
                </mxCell>
                <mxCell id="g8MGEzddEO4zyux5536V-132" style="edgeStyle=orthogonalEdgeStyle;curved=1;rounded=0;orthogonalLoop=1;jettySize=auto;html=1;exitX=0.5;exitY=1;exitDx=0;exitDy=0;entryX=0.5;entryY=0;entryDx=0;entryDy=0;fontSize=17;" edge="1" parent="g8MGEzddEO4zyux5536V-1" source="g8MGEzddEO4zyux5536V-133" target="g8MGEzddEO4zyux5536V-142">
                    <mxGeometry relative="1" as="geometry"/>
                </mxCell>
                <mxCell id="g8MGEzddEO4zyux5536V-133" value="熊珍" style="rounded=1;whiteSpace=wrap;html=1;fontSize=17;" vertex="1" parent="g8MGEzddEO4zyux5536V-1">
                    <mxGeometry x="1040" y="2455" width="66" height="40" as="geometry"/>
                </mxCell>
                <mxCell id="g8MGEzddEO4zyux5536V-134" value="蔡女" style="text;html=1;align=center;verticalAlign=middle;resizable=0;points=[];autosize=1;strokeColor=none;fillColor=none;fontSize=17;" vertex="1" parent="g8MGEzddEO4zyux5536V-1">
                    <mxGeometry x="1005" y="2425" width="50" height="30" as="geometry"/>
                </mxCell>
                <mxCell id="g8MGEzddEO4zyux5536V-135" value="秦女" style="text;html=1;align=center;verticalAlign=middle;resizable=0;points=[];autosize=1;strokeColor=none;fillColor=none;fontSize=17;" vertex="1" parent="g8MGEzddEO4zyux5536V-1">
                    <mxGeometry x="1068" y="2425" width="50" height="30" as="geometry"/>
                </mxCell>
                <mxCell id="g8MGEzddEO4zyux5536V-136" value="昭王" style="text;html=1;align=center;verticalAlign=middle;resizable=0;points=[];autosize=1;strokeColor=none;fillColor=none;fontSize=17;" vertex="1" parent="g8MGEzddEO4zyux5536V-1">
                    <mxGeometry x="1106" y="2460" width="50" height="30" as="geometry"/>
                </mxCell>
                <mxCell id="g8MGEzddEO4zyux5536V-137" value="子西" style="rounded=1;whiteSpace=wrap;html=1;fontSize=17;" vertex="1" parent="g8MGEzddEO4zyux5536V-1">
                    <mxGeometry x="1130" y="2370" width="66" height="40" as="geometry"/>
                </mxCell>
                <mxCell id="g8MGEzddEO4zyux5536V-138" value="申" style="rounded=1;whiteSpace=wrap;html=1;fontSize=17;" vertex="1" parent="g8MGEzddEO4zyux5536V-1">
                    <mxGeometry x="1150" y="2455" width="66" height="40" as="geometry"/>
                </mxCell>
                <mxCell id="g8MGEzddEO4zyux5536V-139" value="结" style="rounded=1;whiteSpace=wrap;html=1;fontSize=17;" vertex="1" parent="g8MGEzddEO4zyux5536V-1">
                    <mxGeometry x="1220" y="2455" width="66" height="40" as="geometry"/>
                </mxCell>
                <mxCell id="g8MGEzddEO4zyux5536V-140" value="闾" style="rounded=1;whiteSpace=wrap;html=1;fontSize=17;" vertex="1" parent="g8MGEzddEO4zyux5536V-1">
                    <mxGeometry x="1290" y="2455" width="66" height="40" as="geometry"/>
                </mxCell>
                <mxCell id="g8MGEzddEO4zyux5536V-141" style="edgeStyle=orthogonalEdgeStyle;curved=1;rounded=0;orthogonalLoop=1;jettySize=auto;html=1;exitX=0.5;exitY=1;exitDx=0;exitDy=0;entryX=0.5;entryY=0;entryDx=0;entryDy=0;fontSize=17;" edge="1" parent="g8MGEzddEO4zyux5536V-1" source="g8MGEzddEO4zyux5536V-142" target="g8MGEzddEO4zyux5536V-147">
                    <mxGeometry relative="1" as="geometry"/>
                </mxCell>
                <mxCell id="g8MGEzddEO4zyux5536V-142" value="章" style="rounded=1;whiteSpace=wrap;html=1;fontSize=17;" vertex="1" parent="g8MGEzddEO4zyux5536V-1">
                    <mxGeometry x="1040" y="2530" width="66" height="40" as="geometry"/>
                </mxCell>
                <mxCell id="g8MGEzddEO4zyux5536V-143" value="惠王" style="text;html=1;align=center;verticalAlign=middle;resizable=0;points=[];autosize=1;strokeColor=none;fillColor=none;fontSize=17;" vertex="1" parent="g8MGEzddEO4zyux5536V-1">
                    <mxGeometry x="1106" y="2535" width="50" height="30" as="geometry"/>
                </mxCell>
                <mxCell id="g8MGEzddEO4zyux5536V-144" value="越女" style="text;html=1;align=center;verticalAlign=middle;resizable=0;points=[];autosize=1;strokeColor=none;fillColor=none;fontSize=17;" vertex="1" parent="g8MGEzddEO4zyux5536V-1">
                    <mxGeometry x="1068" y="2500" width="50" height="30" as="geometry"/>
                </mxCell>
                <mxCell id="g8MGEzddEO4zyux5536V-145" value="胜" style="rounded=1;whiteSpace=wrap;html=1;fontSize=17;" vertex="1" parent="g8MGEzddEO4zyux5536V-1">
                    <mxGeometry x="906" y="2530" width="66" height="40" as="geometry"/>
                </mxCell>
                <mxCell id="g8MGEzddEO4zyux5536V-146" style="edgeStyle=orthogonalEdgeStyle;curved=1;rounded=0;orthogonalLoop=1;jettySize=auto;html=1;exitX=0.5;exitY=1;exitDx=0;exitDy=0;entryX=0.5;entryY=0;entryDx=0;entryDy=0;fontSize=17;" edge="1" parent="g8MGEzddEO4zyux5536V-1" source="g8MGEzddEO4zyux5536V-147" target="g8MGEzddEO4zyux5536V-151">
                    <mxGeometry relative="1" as="geometry"/>
                </mxCell>
                <mxCell id="g8MGEzddEO4zyux5536V-147" value="中" style="rounded=1;whiteSpace=wrap;html=1;fontSize=17;" vertex="1" parent="g8MGEzddEO4zyux5536V-1">
                    <mxGeometry x="1040" y="2600" width="66" height="40" as="geometry"/>
                </mxCell>
                <mxCell id="g8MGEzddEO4zyux5536V-148" value="简王" style="text;html=1;align=center;verticalAlign=middle;resizable=0;points=[];autosize=1;strokeColor=none;fillColor=none;fontSize=17;" vertex="1" parent="g8MGEzddEO4zyux5536V-1">
                    <mxGeometry x="1106" y="2605" width="50" height="30" as="geometry"/>
                </mxCell>
                <mxCell id="g8MGEzddEO4zyux5536V-149" value="白公" style="text;html=1;align=center;verticalAlign=middle;resizable=0;points=[];autosize=1;strokeColor=none;fillColor=none;fontSize=17;" vertex="1" parent="g8MGEzddEO4zyux5536V-1">
                    <mxGeometry x="970" y="2535" width="50" height="30" as="geometry"/>
                </mxCell>
                <mxCell id="g8MGEzddEO4zyux5536V-150" style="edgeStyle=orthogonalEdgeStyle;curved=1;rounded=0;orthogonalLoop=1;jettySize=auto;html=1;exitX=0.5;exitY=1;exitDx=0;exitDy=0;entryX=0.5;entryY=0;entryDx=0;entryDy=0;fontSize=17;" edge="1" parent="g8MGEzddEO4zyux5536V-1" source="g8MGEzddEO4zyux5536V-151" target="g8MGEzddEO4zyux5536V-155">
                    <mxGeometry relative="1" as="geometry"/>
                </mxCell>
                <mxCell id="g8MGEzddEO4zyux5536V-151" value="当" style="rounded=1;whiteSpace=wrap;html=1;fontSize=17;" vertex="1" parent="g8MGEzddEO4zyux5536V-1">
                    <mxGeometry x="1040" y="2670" width="66" height="40" as="geometry"/>
                </mxCell>
                <mxCell id="g8MGEzddEO4zyux5536V-152" value="声王" style="text;html=1;align=center;verticalAlign=middle;resizable=0;points=[];autosize=1;strokeColor=none;fillColor=none;fontSize=17;" vertex="1" parent="g8MGEzddEO4zyux5536V-1">
                    <mxGeometry x="1106" y="2675" width="50" height="30" as="geometry"/>
                </mxCell>
                <mxCell id="g8MGEzddEO4zyux5536V-153" style="edgeStyle=orthogonalEdgeStyle;curved=1;rounded=0;orthogonalLoop=1;jettySize=auto;html=1;exitX=0.5;exitY=1;exitDx=0;exitDy=0;entryX=0.5;entryY=0;entryDx=0;entryDy=0;fontSize=17;" edge="1" parent="g8MGEzddEO4zyux5536V-1" source="g8MGEzddEO4zyux5536V-155" target="g8MGEzddEO4zyux5536V-157">
                    <mxGeometry relative="1" as="geometry"/>
                </mxCell>
                <mxCell id="g8MGEzddEO4zyux5536V-154" style="edgeStyle=orthogonalEdgeStyle;curved=1;rounded=0;orthogonalLoop=1;jettySize=auto;html=1;exitX=0.5;exitY=1;exitDx=0;exitDy=0;fontSize=17;" edge="1" parent="g8MGEzddEO4zyux5536V-1" source="g8MGEzddEO4zyux5536V-155" target="g8MGEzddEO4zyux5536V-160">
                    <mxGeometry relative="1" as="geometry"/>
                </mxCell>
                <mxCell id="g8MGEzddEO4zyux5536V-155" value="熊疑" style="rounded=1;whiteSpace=wrap;html=1;fontSize=17;" vertex="1" parent="g8MGEzddEO4zyux5536V-1">
                    <mxGeometry x="1040" y="2740" width="66" height="40" as="geometry"/>
                </mxCell>
                <mxCell id="g8MGEzddEO4zyux5536V-156" value="悼王" style="text;html=1;align=center;verticalAlign=middle;resizable=0;points=[];autosize=1;strokeColor=none;fillColor=none;fontSize=17;" vertex="1" parent="g8MGEzddEO4zyux5536V-1">
                    <mxGeometry x="1106" y="2745" width="50" height="30" as="geometry"/>
                </mxCell>
                <mxCell id="g8MGEzddEO4zyux5536V-157" value="臧" style="rounded=1;whiteSpace=wrap;html=1;fontSize=17;" vertex="1" parent="g8MGEzddEO4zyux5536V-1">
                    <mxGeometry x="1040" y="2810" width="66" height="40" as="geometry"/>
                </mxCell>
                <mxCell id="g8MGEzddEO4zyux5536V-158" value="肃王" style="text;html=1;align=center;verticalAlign=middle;resizable=0;points=[];autosize=1;strokeColor=none;fillColor=none;fontSize=17;" vertex="1" parent="g8MGEzddEO4zyux5536V-1">
                    <mxGeometry x="1106" y="2815" width="50" height="30" as="geometry"/>
                </mxCell>
                <mxCell id="g8MGEzddEO4zyux5536V-159" style="edgeStyle=orthogonalEdgeStyle;curved=1;rounded=0;orthogonalLoop=1;jettySize=auto;html=1;exitX=0.5;exitY=1;exitDx=0;exitDy=0;entryX=0.5;entryY=0;entryDx=0;entryDy=0;fontSize=17;" edge="1" parent="g8MGEzddEO4zyux5536V-1" source="g8MGEzddEO4zyux5536V-160" target="g8MGEzddEO4zyux5536V-163">
                    <mxGeometry relative="1" as="geometry"/>
                </mxCell>
                <mxCell id="g8MGEzddEO4zyux5536V-160" value="熊良夫" style="rounded=1;whiteSpace=wrap;html=1;fontSize=17;" vertex="1" parent="g8MGEzddEO4zyux5536V-1">
                    <mxGeometry x="1160" y="2810" width="66" height="40" as="geometry"/>
                </mxCell>
                <mxCell id="g8MGEzddEO4zyux5536V-161" value="宣王" style="text;html=1;align=center;verticalAlign=middle;resizable=0;points=[];autosize=1;strokeColor=none;fillColor=none;fontSize=17;" vertex="1" parent="g8MGEzddEO4zyux5536V-1">
                    <mxGeometry x="1226" y="2815" width="50" height="30" as="geometry"/>
                </mxCell>
                <mxCell id="g8MGEzddEO4zyux5536V-162" style="edgeStyle=orthogonalEdgeStyle;curved=1;rounded=0;orthogonalLoop=1;jettySize=auto;html=1;exitX=0.5;exitY=1;exitDx=0;exitDy=0;entryX=0.5;entryY=0;entryDx=0;entryDy=0;fontSize=17;" edge="1" parent="g8MGEzddEO4zyux5536V-1" source="g8MGEzddEO4zyux5536V-163" target="g8MGEzddEO4zyux5536V-167">
                    <mxGeometry relative="1" as="geometry"/>
                </mxCell>
                <mxCell id="g8MGEzddEO4zyux5536V-163" value="熊商" style="rounded=1;whiteSpace=wrap;html=1;fontSize=17;" vertex="1" parent="g8MGEzddEO4zyux5536V-1">
                    <mxGeometry x="1160" y="2880" width="66" height="40" as="geometry"/>
                </mxCell>
                <mxCell id="g8MGEzddEO4zyux5536V-164" value="威王" style="text;html=1;align=center;verticalAlign=middle;resizable=0;points=[];autosize=1;strokeColor=none;fillColor=none;fontSize=17;" vertex="1" parent="g8MGEzddEO4zyux5536V-1">
                    <mxGeometry x="1226" y="2885" width="50" height="30" as="geometry"/>
                </mxCell>
                <mxCell id="g8MGEzddEO4zyux5536V-165" style="edgeStyle=orthogonalEdgeStyle;curved=1;rounded=0;orthogonalLoop=1;jettySize=auto;html=1;exitX=0.5;exitY=1;exitDx=0;exitDy=0;entryX=0.5;entryY=0;entryDx=0;entryDy=0;fontSize=17;" edge="1" parent="g8MGEzddEO4zyux5536V-1" source="g8MGEzddEO4zyux5536V-167" target="g8MGEzddEO4zyux5536V-169">
                    <mxGeometry relative="1" as="geometry"/>
                </mxCell>
                <mxCell id="g8MGEzddEO4zyux5536V-166" style="edgeStyle=orthogonalEdgeStyle;curved=1;rounded=0;orthogonalLoop=1;jettySize=auto;html=1;exitX=0.5;exitY=1;exitDx=0;exitDy=0;entryX=0.5;entryY=0;entryDx=0;entryDy=0;fontSize=17;" edge="1" parent="g8MGEzddEO4zyux5536V-1" source="g8MGEzddEO4zyux5536V-167" target="g8MGEzddEO4zyux5536V-171">
                    <mxGeometry relative="1" as="geometry"/>
                </mxCell>
                <mxCell id="g8MGEzddEO4zyux5536V-167" value="熊槐" style="rounded=1;whiteSpace=wrap;html=1;fontSize=17;" vertex="1" parent="g8MGEzddEO4zyux5536V-1">
                    <mxGeometry x="1160" y="2960" width="66" height="40" as="geometry"/>
                </mxCell>
                <mxCell id="g8MGEzddEO4zyux5536V-168" value="怀王" style="text;html=1;align=center;verticalAlign=middle;resizable=0;points=[];autosize=1;strokeColor=none;fillColor=none;fontSize=17;" vertex="1" parent="g8MGEzddEO4zyux5536V-1">
                    <mxGeometry x="1226" y="2965" width="50" height="30" as="geometry"/>
                </mxCell>
                <mxCell id="g8MGEzddEO4zyux5536V-169" value="子兰" style="rounded=1;whiteSpace=wrap;html=1;fontSize=17;" vertex="1" parent="g8MGEzddEO4zyux5536V-1">
                    <mxGeometry x="1216" y="3050" width="66" height="40" as="geometry"/>
                </mxCell>
                <mxCell id="g8MGEzddEO4zyux5536V-170" style="edgeStyle=orthogonalEdgeStyle;curved=1;rounded=0;orthogonalLoop=1;jettySize=auto;html=1;exitX=0.5;exitY=1;exitDx=0;exitDy=0;entryX=0.5;entryY=0;entryDx=0;entryDy=0;fontSize=17;" edge="1" parent="g8MGEzddEO4zyux5536V-1" source="g8MGEzddEO4zyux5536V-171" target="g8MGEzddEO4zyux5536V-176">
                    <mxGeometry relative="1" as="geometry"/>
                </mxCell>
                <mxCell id="g8MGEzddEO4zyux5536V-171" value="横" style="rounded=1;whiteSpace=wrap;html=1;fontSize=17;" vertex="1" parent="g8MGEzddEO4zyux5536V-1">
                    <mxGeometry x="1082" y="3050" width="66" height="40" as="geometry"/>
                </mxCell>
                <mxCell id="g8MGEzddEO4zyux5536V-172" value="顷襄王" style="text;html=1;align=center;verticalAlign=middle;resizable=0;points=[];autosize=1;strokeColor=none;fillColor=none;fontSize=17;" vertex="1" parent="g8MGEzddEO4zyux5536V-1">
                    <mxGeometry x="1138" y="3055" width="70" height="30" as="geometry"/>
                </mxCell>
                <mxCell id="g8MGEzddEO4zyux5536V-173" style="edgeStyle=orthogonalEdgeStyle;curved=1;rounded=0;orthogonalLoop=1;jettySize=auto;html=1;exitX=0.5;exitY=1;exitDx=0;exitDy=0;entryX=0.5;entryY=0;entryDx=0;entryDy=0;fontSize=17;" edge="1" parent="g8MGEzddEO4zyux5536V-1" source="g8MGEzddEO4zyux5536V-176" target="g8MGEzddEO4zyux5536V-178">
                    <mxGeometry relative="1" as="geometry"/>
                </mxCell>
                <mxCell id="g8MGEzddEO4zyux5536V-174" style="edgeStyle=orthogonalEdgeStyle;curved=1;rounded=0;orthogonalLoop=1;jettySize=auto;html=1;exitX=0.5;exitY=1;exitDx=0;exitDy=0;entryX=0.5;entryY=0;entryDx=0;entryDy=0;fontSize=17;" edge="1" parent="g8MGEzddEO4zyux5536V-1" source="g8MGEzddEO4zyux5536V-176" target="g8MGEzddEO4zyux5536V-180">
                    <mxGeometry relative="1" as="geometry"/>
                </mxCell>
                <mxCell id="g8MGEzddEO4zyux5536V-175" style="edgeStyle=orthogonalEdgeStyle;curved=1;rounded=0;orthogonalLoop=1;jettySize=auto;html=1;exitX=0.5;exitY=1;exitDx=0;exitDy=0;entryX=0.5;entryY=0;entryDx=0;entryDy=0;fontSize=17;" edge="1" parent="g8MGEzddEO4zyux5536V-1" source="g8MGEzddEO4zyux5536V-176" target="g8MGEzddEO4zyux5536V-182">
                    <mxGeometry relative="1" as="geometry"/>
                </mxCell>
                <mxCell id="g8MGEzddEO4zyux5536V-176" value="熊元" style="rounded=1;whiteSpace=wrap;html=1;fontSize=17;" vertex="1" parent="g8MGEzddEO4zyux5536V-1">
                    <mxGeometry x="1082" y="3120" width="66" height="40" as="geometry"/>
                </mxCell>
                <mxCell id="g8MGEzddEO4zyux5536V-177" value="考烈王" style="text;html=1;align=center;verticalAlign=middle;resizable=0;points=[];autosize=1;strokeColor=none;fillColor=none;fontSize=17;" vertex="1" parent="g8MGEzddEO4zyux5536V-1">
                    <mxGeometry x="1138" y="3130" width="70" height="30" as="geometry"/>
                </mxCell>
                <mxCell id="g8MGEzddEO4zyux5536V-178" value="悍" style="rounded=1;whiteSpace=wrap;html=1;fontSize=17;" vertex="1" parent="g8MGEzddEO4zyux5536V-1">
                    <mxGeometry x="1002" y="3210" width="66" height="40" as="geometry"/>
                </mxCell>
                <mxCell id="g8MGEzddEO4zyux5536V-179" value="幽王" style="text;html=1;align=center;verticalAlign=middle;resizable=0;points=[];autosize=1;strokeColor=none;fillColor=none;fontSize=17;" vertex="1" parent="g8MGEzddEO4zyux5536V-1">
                    <mxGeometry x="1068" y="3220" width="50" height="30" as="geometry"/>
                </mxCell>
                <mxCell id="g8MGEzddEO4zyux5536V-180" value="犹" style="rounded=1;whiteSpace=wrap;html=1;fontSize=17;" vertex="1" parent="g8MGEzddEO4zyux5536V-1">
                    <mxGeometry x="1240" y="3210" width="66" height="40" as="geometry"/>
                </mxCell>
                <mxCell id="g8MGEzddEO4zyux5536V-181" value="哀王" style="text;html=1;align=center;verticalAlign=middle;resizable=0;points=[];autosize=1;strokeColor=none;fillColor=none;fontSize=17;" vertex="1" parent="g8MGEzddEO4zyux5536V-1">
                    <mxGeometry x="1306" y="3220" width="50" height="30" as="geometry"/>
                </mxCell>
                <mxCell id="g8MGEzddEO4zyux5536V-182" value="负刍" style="rounded=1;whiteSpace=wrap;html=1;fontSize=17;" vertex="1" parent="g8MGEzddEO4zyux5536V-1">
                    <mxGeometry x="1130" y="3210" width="66" height="40" as="geometry"/>
                </mxCell>
            </root>
        </mxGraphModel>
    </diagram>
</mxfile>